G04*
G04 #@! TF.GenerationSoftware,Altium Limited,Altium Designer,23.0.1 (38)*
G04*
G04 Layer_Color=16711935*
%FSLAX25Y25*%
%MOIN*%
G70*
G04*
G04 #@! TF.SameCoordinates,5643ACED-D155-4500-AF81-F5B34C59678D*
G04*
G04*
G04 #@! TF.FilePolarity,Positive*
G04*
G01*
G75*
%ADD39C,0.00591*%
%ADD40C,0.00394*%
D39*
X278229Y283799D02*
X280853D01*
X281378Y284324D01*
Y285373D01*
X280853Y285898D01*
X278229D01*
X281378Y288522D02*
X278229D01*
X279804Y286948D01*
Y289047D01*
X178229Y283799D02*
X180853D01*
X181378Y284324D01*
Y285373D01*
X180853Y285898D01*
X178229D01*
X178754Y286948D02*
X178229Y287473D01*
Y288522D01*
X178754Y289047D01*
X179279D01*
X179804Y288522D01*
Y287997D01*
Y288522D01*
X180328Y289047D01*
X180853D01*
X181378Y288522D01*
Y287473D01*
X180853Y286948D01*
X228229Y178799D02*
X230853D01*
X231378Y179324D01*
Y180374D01*
X230853Y180898D01*
X228229D01*
X231378Y184047D02*
Y181948D01*
X229279Y184047D01*
X228754D01*
X228229Y183522D01*
Y182473D01*
X228754Y181948D01*
D40*
X174500Y186361D02*
Y184394D01*
X174894Y184000D01*
X175681D01*
X176074Y184394D01*
Y186361D01*
X178436D02*
X176861D01*
Y185181D01*
X177649Y185574D01*
X178042D01*
X178436Y185181D01*
Y184394D01*
X178042Y184000D01*
X177255D01*
X176861Y184394D01*
M02*
