G04*
G04 #@! TF.GenerationSoftware,Altium Limited,Altium Designer,23.0.1 (38)*
G04*
G04 Layer_Color=16711935*
%FSLAX25Y25*%
%MOIN*%
G70*
G04*
G04 #@! TF.SameCoordinates,5643ACED-D155-4500-AF81-F5B34C59678D*
G04*
G04*
G04 #@! TF.FilePolarity,Negative*
G04*
G01*
G75*
%ADD19C,0.07887*%
%ADD20R,0.07887X0.07887*%
%ADD21C,0.25210*%
%ADD22R,0.06800X0.06800*%
%ADD23C,0.06800*%
%ADD24C,0.04921*%
%ADD25C,0.06181*%
%ADD26R,0.06181X0.06181*%
%ADD27C,0.04331*%
%ADD28C,0.05512*%
%ADD29R,0.05512X0.05512*%
%ADD30C,0.03500*%
D19*
X280000Y205000D02*
D03*
D20*
Y185000D02*
D03*
D21*
X306913Y114000D02*
D03*
Y342347D02*
D03*
X114000D02*
D03*
Y114000D02*
D03*
D22*
X119000Y133173D02*
D03*
D23*
Y143173D02*
D03*
Y153173D02*
D03*
Y163173D02*
D03*
Y173173D02*
D03*
Y183173D02*
D03*
X109000Y133173D02*
D03*
Y143173D02*
D03*
Y153173D02*
D03*
Y163173D02*
D03*
Y173173D02*
D03*
Y183173D02*
D03*
X119000Y193173D02*
D03*
X109000D02*
D03*
X119000Y203173D02*
D03*
Y213173D02*
D03*
Y223173D02*
D03*
Y233173D02*
D03*
Y243173D02*
D03*
Y253173D02*
D03*
X109000Y203173D02*
D03*
Y213173D02*
D03*
Y223173D02*
D03*
Y233173D02*
D03*
Y243173D02*
D03*
Y253173D02*
D03*
X119000Y263173D02*
D03*
X109000D02*
D03*
X119000Y273173D02*
D03*
Y283173D02*
D03*
Y293173D02*
D03*
Y303173D02*
D03*
Y313173D02*
D03*
Y323173D02*
D03*
X109000Y273173D02*
D03*
Y283173D02*
D03*
Y293173D02*
D03*
Y303173D02*
D03*
Y313173D02*
D03*
Y323173D02*
D03*
D24*
X285000Y255000D02*
D03*
X185000D02*
D03*
X235000D02*
D03*
X285000Y150000D02*
D03*
X235000D02*
D03*
D25*
X295000Y246496D02*
D03*
X285000D02*
D03*
X275000D02*
D03*
X195000D02*
D03*
X185000D02*
D03*
X175000D02*
D03*
X245000D02*
D03*
X235000D02*
D03*
X225000D02*
D03*
X295000Y141496D02*
D03*
X285000D02*
D03*
X275000D02*
D03*
X245000D02*
D03*
X235000D02*
D03*
X225000D02*
D03*
D26*
X265000Y246496D02*
D03*
X165000D02*
D03*
X215000D02*
D03*
X265000Y141496D02*
D03*
X215000D02*
D03*
D27*
X196142Y145807D02*
D03*
D28*
X189842Y137933D02*
D03*
X180000D02*
D03*
D29*
X170158D02*
D03*
D30*
X185000Y190000D02*
D03*
X151485Y202485D02*
D03*
X139485Y214485D02*
D03*
X148015Y223015D02*
D03*
X160015Y211015D02*
D03*
M02*
