G04*
G04 #@! TF.GenerationSoftware,Altium Limited,Altium Designer,23.0.1 (38)*
G04*
G04 Layer_Physical_Order=1*
G04 Layer_Color=255*
%FSLAX25Y25*%
%MOIN*%
G70*
G04*
G04 #@! TF.SameCoordinates,5643ACED-D155-4500-AF81-F5B34C59678D*
G04*
G04*
G04 #@! TF.FilePolarity,Positive*
G04*
G01*
G75*
%ADD14C,0.01000*%
G04:AMPARAMS|DCode=15|XSize=23.62mil|YSize=57.09mil|CornerRadius=2.01mil|HoleSize=0mil|Usage=FLASHONLY|Rotation=180.000|XOffset=0mil|YOffset=0mil|HoleType=Round|Shape=RoundedRectangle|*
%AMROUNDEDRECTD15*
21,1,0.02362,0.05307,0,0,180.0*
21,1,0.01961,0.05709,0,0,180.0*
1,1,0.00402,-0.00980,0.02653*
1,1,0.00402,0.00980,0.02653*
1,1,0.00402,0.00980,-0.02653*
1,1,0.00402,-0.00980,-0.02653*
%
%ADD15ROUNDEDRECTD15*%
G04:AMPARAMS|DCode=16|XSize=25.59mil|YSize=64.96mil|CornerRadius=1.92mil|HoleSize=0mil|Usage=FLASHONLY|Rotation=90.000|XOffset=0mil|YOffset=0mil|HoleType=Round|Shape=RoundedRectangle|*
%AMROUNDEDRECTD16*
21,1,0.02559,0.06112,0,0,90.0*
21,1,0.02175,0.06496,0,0,90.0*
1,1,0.00384,0.03056,0.01088*
1,1,0.00384,0.03056,-0.01088*
1,1,0.00384,-0.03056,-0.01088*
1,1,0.00384,-0.03056,0.01088*
%
%ADD16ROUNDEDRECTD16*%
%ADD24C,0.04921*%
%ADD25C,0.06181*%
%ADD26R,0.06181X0.06181*%
%ADD27C,0.04331*%
%ADD28C,0.05512*%
%ADD29R,0.05512X0.05512*%
%ADD31C,0.07087*%
%ADD32R,0.07087X0.07087*%
%ADD33C,0.24410*%
%ADD34R,0.06000X0.06000*%
%ADD35C,0.06000*%
%ADD36C,0.02700*%
G36*
X301421Y354368D02*
X299993Y353640D01*
X298311Y352418D01*
X296841Y350949D01*
X295620Y349267D01*
X294676Y347415D01*
X294034Y345439D01*
X293709Y343386D01*
Y341307D01*
X294034Y339254D01*
X294676Y337278D01*
X295620Y335426D01*
X296841Y333744D01*
X298311Y332275D01*
X299993Y331053D01*
X301845Y330109D01*
X303821Y329467D01*
X305874Y329142D01*
X307953D01*
X310005Y329467D01*
X311982Y330109D01*
X313834Y331053D01*
X315516Y332275D01*
X316985Y333744D01*
X318207Y335426D01*
X318935Y336854D01*
X319435Y336734D01*
Y119612D01*
X318935Y119492D01*
X318207Y120921D01*
X316985Y122602D01*
X315516Y124072D01*
X313834Y125294D01*
X311982Y126237D01*
X310005Y126880D01*
X307953Y127205D01*
X305874D01*
X303821Y126880D01*
X301845Y126237D01*
X299993Y125294D01*
X298311Y124072D01*
X296841Y122602D01*
X295620Y120921D01*
X294676Y119069D01*
X294034Y117092D01*
X293709Y115039D01*
Y112961D01*
X294034Y110908D01*
X294676Y108931D01*
X295620Y107079D01*
X296841Y105398D01*
X298311Y103928D01*
X299993Y102706D01*
X301421Y101978D01*
X301301Y101478D01*
X119612D01*
X119492Y101978D01*
X120921Y102706D01*
X122602Y103928D01*
X124072Y105398D01*
X125294Y107079D01*
X126237Y108931D01*
X126880Y110908D01*
X127205Y112961D01*
Y115039D01*
X126880Y117092D01*
X126237Y119069D01*
X125294Y120921D01*
X124072Y122602D01*
X122602Y124072D01*
X120921Y125294D01*
X119069Y126237D01*
X117092Y126880D01*
X115039Y127205D01*
X112961D01*
X110908Y126880D01*
X108931Y126237D01*
X107079Y125294D01*
X105398Y124072D01*
X103928Y122602D01*
X102706Y120921D01*
X101978Y119492D01*
X101478Y119612D01*
Y336734D01*
X101978Y336854D01*
X102706Y335426D01*
X103928Y333744D01*
X105398Y332275D01*
X107079Y331053D01*
X108931Y330109D01*
X109196Y330023D01*
X109117Y329529D01*
X107000D01*
X106415Y329413D01*
X105919Y329081D01*
X102919Y326081D01*
X102587Y325585D01*
X102471Y325000D01*
Y308173D01*
X102587Y307588D01*
X102919Y307092D01*
X105280Y304730D01*
X105273Y304717D01*
X105000Y303700D01*
Y302647D01*
X105273Y301629D01*
X105799Y300717D01*
X106544Y299972D01*
X107456Y299446D01*
X108473Y299173D01*
X109527D01*
X110544Y299446D01*
X111456Y299972D01*
X112201Y300717D01*
X112727Y301629D01*
X113000Y302647D01*
Y303700D01*
X112727Y304717D01*
X112201Y305629D01*
X111456Y306374D01*
X110544Y306901D01*
X109527Y307173D01*
X108473D01*
X107456Y306901D01*
X107443Y306893D01*
X105529Y308807D01*
Y310280D01*
X106029Y310487D01*
X106544Y309972D01*
X107456Y309446D01*
X108473Y309173D01*
X109527D01*
X110544Y309446D01*
X111456Y309972D01*
X112201Y310717D01*
X112237Y310780D01*
X112866D01*
X116640Y307007D01*
X116666Y306444D01*
X116544Y306374D01*
X115799Y305629D01*
X115273Y304717D01*
X115000Y303700D01*
Y302647D01*
X115273Y301629D01*
X115799Y300717D01*
X116544Y299972D01*
X117456Y299446D01*
X118473Y299173D01*
X119527D01*
X120544Y299446D01*
X121456Y299972D01*
X122201Y300717D01*
X122727Y301629D01*
X123000Y302647D01*
Y303700D01*
X122727Y304717D01*
X122201Y305629D01*
X121860Y305971D01*
X122067Y306471D01*
X146367D01*
X168471Y284366D01*
Y283002D01*
X168154Y282791D01*
X167889Y282394D01*
X167795Y281925D01*
Y276618D01*
X167889Y276150D01*
X168154Y275752D01*
X168551Y275487D01*
X169020Y275394D01*
X170980D01*
X171449Y275487D01*
X171846Y275752D01*
X172111Y276150D01*
X172205Y276618D01*
Y281925D01*
X172111Y282394D01*
X171846Y282791D01*
X171529Y283002D01*
Y284366D01*
X175634Y288471D01*
X185000D01*
X185585Y288587D01*
X186081Y288919D01*
X191081Y293919D01*
X191413Y294415D01*
X191529Y295000D01*
Y296997D01*
X191846Y297209D01*
X192111Y297606D01*
X192205Y298075D01*
Y303382D01*
X192111Y303850D01*
X191846Y304248D01*
X191529Y304459D01*
Y305206D01*
X191992Y305669D01*
X192350Y306533D01*
Y307467D01*
X192142Y307971D01*
X192476Y308471D01*
X194367D01*
X197471Y305366D01*
Y304213D01*
X196971Y304061D01*
X196846Y304248D01*
X196449Y304513D01*
X195980Y304606D01*
X194020D01*
X193551Y304513D01*
X193154Y304248D01*
X192889Y303850D01*
X192795Y303382D01*
Y298075D01*
X192889Y297606D01*
X193154Y297209D01*
X193471Y296997D01*
Y296000D01*
X193587Y295415D01*
X193919Y294919D01*
X223471Y265367D01*
Y250321D01*
X223421Y250308D01*
X222488Y249769D01*
X221727Y249008D01*
X221188Y248075D01*
X220910Y247035D01*
Y245957D01*
X221188Y244917D01*
X221727Y243984D01*
X222488Y243223D01*
X223421Y242684D01*
X224462Y242406D01*
X225538D01*
X226579Y242684D01*
X227512Y243223D01*
X228273Y243984D01*
X228812Y244917D01*
X229090Y245957D01*
Y247035D01*
X228812Y248075D01*
X228273Y249008D01*
X227512Y249769D01*
X226579Y250308D01*
X226529Y250321D01*
Y252119D01*
X226592Y252167D01*
X227029Y252304D01*
X231214Y248119D01*
X231188Y248075D01*
X230909Y247035D01*
Y245957D01*
X231188Y244917D01*
X231727Y243984D01*
X232488Y243223D01*
X233421Y242684D01*
X234461Y242406D01*
X235539D01*
X236579Y242684D01*
X237512Y243223D01*
X238273Y243984D01*
X238812Y244917D01*
X239090Y245957D01*
Y247035D01*
X238812Y248075D01*
X238273Y249008D01*
X237512Y249769D01*
X236579Y250308D01*
X235539Y250587D01*
X234461D01*
X233421Y250308D01*
X233377Y250282D01*
X229529Y254130D01*
Y268000D01*
X229413Y268585D01*
X229081Y269081D01*
X200529Y297634D01*
Y306000D01*
X200413Y306585D01*
X200081Y307081D01*
X196081Y311081D01*
X195585Y311413D01*
X195000Y311529D01*
X191483D01*
X191360Y311918D01*
X191353Y312029D01*
X191992Y312669D01*
X192324Y313471D01*
X234366D01*
X259919Y287919D01*
X260415Y287587D01*
X261000Y287471D01*
X267367D01*
X268471Y286367D01*
Y283002D01*
X268154Y282791D01*
X267889Y282394D01*
X267795Y281925D01*
Y276618D01*
X267889Y276150D01*
X268154Y275752D01*
X268551Y275487D01*
X269020Y275394D01*
X270980D01*
X271449Y275487D01*
X271846Y275752D01*
X272111Y276150D01*
X272205Y276618D01*
Y281925D01*
X272111Y282394D01*
X271846Y282791D01*
X271529Y283002D01*
Y287000D01*
X271413Y287585D01*
X271081Y288081D01*
X269192Y289971D01*
X269329Y290408D01*
X269377Y290471D01*
X272524D01*
X272858Y289971D01*
X272650Y289467D01*
Y288533D01*
X273008Y287669D01*
X273669Y287008D01*
X274533Y286650D01*
X275187D01*
X278381Y283456D01*
X278345Y282919D01*
X278154Y282791D01*
X277889Y282394D01*
X277795Y281925D01*
Y276618D01*
X277889Y276150D01*
X278154Y275752D01*
X278179Y275502D01*
X278008Y275331D01*
X277650Y274467D01*
Y273533D01*
X278008Y272669D01*
X278669Y272008D01*
X279533Y271650D01*
X280467D01*
X281331Y272008D01*
X281992Y272669D01*
X282350Y273533D01*
Y274467D01*
X281992Y275331D01*
X281821Y275502D01*
X281846Y275752D01*
X282111Y276150D01*
X282205Y276618D01*
Y281925D01*
X282111Y282394D01*
X281846Y282791D01*
X281529Y283002D01*
Y284000D01*
X281413Y284585D01*
X281148Y284982D01*
X281536Y285301D01*
X283381Y283456D01*
X283345Y282919D01*
X283154Y282791D01*
X282889Y282394D01*
X282795Y281925D01*
Y276618D01*
X282889Y276150D01*
X283154Y275752D01*
X283551Y275487D01*
X284020Y275394D01*
X285980D01*
X286449Y275487D01*
X286846Y275752D01*
X287111Y276150D01*
X287205Y276618D01*
Y281925D01*
X287111Y282394D01*
X286846Y282791D01*
X286529Y283002D01*
Y284000D01*
X286413Y284585D01*
X286081Y285081D01*
X278081Y293081D01*
X277585Y293413D01*
X277000Y293529D01*
X274476D01*
X274142Y294029D01*
X274350Y294533D01*
Y295467D01*
X273992Y296331D01*
X273956Y296367D01*
X273965Y296433D01*
X274180Y296850D01*
X275980D01*
X276449Y296944D01*
X276846Y297209D01*
X277111Y297606D01*
X277205Y298075D01*
Y303382D01*
X277111Y303850D01*
X276846Y304248D01*
X276449Y304513D01*
X275980Y304606D01*
X274020D01*
X273551Y304513D01*
X273154Y304248D01*
X272889Y303850D01*
X272795Y303382D01*
Y298203D01*
X272569Y297899D01*
X272485Y297833D01*
X272205Y298075D01*
Y303382D01*
X272111Y303850D01*
X271846Y304248D01*
X271449Y304513D01*
X270980Y304606D01*
X269020D01*
X268551Y304513D01*
X268154Y304248D01*
X267889Y303850D01*
X267795Y303382D01*
Y298075D01*
X267889Y297606D01*
X268154Y297209D01*
X268423Y297029D01*
X268271Y296529D01*
X266729D01*
X266577Y297029D01*
X266846Y297209D01*
X267111Y297606D01*
X267205Y298075D01*
Y303382D01*
X267111Y303850D01*
X266846Y304248D01*
X266529Y304459D01*
Y305206D01*
X266992Y305669D01*
X267350Y306533D01*
Y307467D01*
X266992Y308331D01*
X266331Y308992D01*
X265467Y309350D01*
X264533D01*
X263669Y308992D01*
X263008Y308331D01*
X262650Y307467D01*
Y306533D01*
X263008Y305669D01*
X263471Y305206D01*
Y304459D01*
X263154Y304248D01*
X262889Y303850D01*
X262795Y303382D01*
Y298075D01*
X262795Y298075D01*
X262335Y297828D01*
X238081Y322081D01*
X237585Y322413D01*
X237000Y322529D01*
X130633D01*
X124081Y329081D01*
X123585Y329413D01*
X123000Y329529D01*
X118883D01*
X118804Y330023D01*
X119069Y330109D01*
X120921Y331053D01*
X122602Y332275D01*
X124072Y333744D01*
X125294Y335426D01*
X126237Y337278D01*
X126880Y339254D01*
X127205Y341307D01*
Y343386D01*
X126880Y345439D01*
X126237Y347415D01*
X125294Y349267D01*
X124072Y350949D01*
X122602Y352418D01*
X120921Y353640D01*
X119492Y354368D01*
X119612Y354868D01*
X301301D01*
X301421Y354368D01*
D02*
G37*
%LPC*%
G36*
X295980Y304606D02*
X294020D01*
X293551Y304513D01*
X293154Y304248D01*
X292889Y303850D01*
X292795Y303382D01*
Y298075D01*
X292889Y297606D01*
X293154Y297209D01*
X293551Y296944D01*
X294020Y296850D01*
X295980D01*
X296449Y296944D01*
X296846Y297209D01*
X297111Y297606D01*
X297205Y298075D01*
Y303382D01*
X297111Y303850D01*
X296846Y304248D01*
X296449Y304513D01*
X295980Y304606D01*
D02*
G37*
G36*
X290980D02*
X289020D01*
X288551Y304513D01*
X288154Y304248D01*
X287889Y303850D01*
X287795Y303382D01*
Y298075D01*
X287889Y297606D01*
X288154Y297209D01*
X288551Y296944D01*
X289020Y296850D01*
X290980D01*
X291449Y296944D01*
X291846Y297209D01*
X292111Y297606D01*
X292205Y298075D01*
Y303382D01*
X292111Y303850D01*
X291846Y304248D01*
X291449Y304513D01*
X290980Y304606D01*
D02*
G37*
G36*
X285980D02*
X284020D01*
X283551Y304513D01*
X283154Y304248D01*
X282889Y303850D01*
X282795Y303382D01*
Y298075D01*
X282889Y297606D01*
X283154Y297209D01*
X283551Y296944D01*
X284020Y296850D01*
X285980D01*
X286449Y296944D01*
X286846Y297209D01*
X287111Y297606D01*
X287205Y298075D01*
Y303382D01*
X287111Y303850D01*
X286846Y304248D01*
X286449Y304513D01*
X285980Y304606D01*
D02*
G37*
G36*
X280980D02*
X279020D01*
X278551Y304513D01*
X278154Y304248D01*
X277889Y303850D01*
X277795Y303382D01*
Y298075D01*
X277889Y297606D01*
X278154Y297209D01*
X278551Y296944D01*
X279020Y296850D01*
X280980D01*
X281449Y296944D01*
X281846Y297209D01*
X282111Y297606D01*
X282205Y298075D01*
Y303382D01*
X282111Y303850D01*
X281846Y304248D01*
X281449Y304513D01*
X280980Y304606D01*
D02*
G37*
G36*
X109527Y297173D02*
X109500D01*
Y293673D01*
X113000D01*
Y293700D01*
X112727Y294717D01*
X112201Y295629D01*
X111456Y296374D01*
X110544Y296901D01*
X109527Y297173D01*
D02*
G37*
G36*
X108500D02*
X108473D01*
X107456Y296901D01*
X106544Y296374D01*
X105799Y295629D01*
X105273Y294717D01*
X105000Y293700D01*
Y293673D01*
X108500D01*
Y297173D01*
D02*
G37*
G36*
X119527D02*
X118473D01*
X117456Y296901D01*
X116544Y296374D01*
X115799Y295629D01*
X115273Y294717D01*
X115000Y293700D01*
Y292647D01*
X115273Y291629D01*
X115799Y290717D01*
X116544Y289972D01*
X117456Y289446D01*
X118473Y289173D01*
X119527D01*
X120544Y289446D01*
X121456Y289972D01*
X122201Y290717D01*
X122727Y291629D01*
X123000Y292647D01*
Y293700D01*
X122727Y294717D01*
X122201Y295629D01*
X121456Y296374D01*
X120544Y296901D01*
X119527Y297173D01*
D02*
G37*
G36*
X113000Y292673D02*
X109500D01*
Y289173D01*
X109527D01*
X110544Y289446D01*
X111456Y289972D01*
X112201Y290717D01*
X112727Y291629D01*
X113000Y292647D01*
Y292673D01*
D02*
G37*
G36*
X108500D02*
X105000D01*
Y292647D01*
X105273Y291629D01*
X105799Y290717D01*
X106544Y289972D01*
X107456Y289446D01*
X108473Y289173D01*
X108500D01*
Y292673D01*
D02*
G37*
G36*
X195980Y283150D02*
X195500D01*
Y279772D01*
X197205D01*
Y281925D01*
X197111Y282394D01*
X196846Y282791D01*
X196449Y283056D01*
X195980Y283150D01*
D02*
G37*
G36*
X295980D02*
X295500D01*
Y279772D01*
X297205D01*
Y281925D01*
X297111Y282394D01*
X296846Y282791D01*
X296449Y283056D01*
X295980Y283150D01*
D02*
G37*
G36*
X194500D02*
X194020D01*
X193551Y283056D01*
X193154Y282791D01*
X192889Y282394D01*
X192795Y281925D01*
Y279772D01*
X194500D01*
Y283150D01*
D02*
G37*
G36*
X294500D02*
X294020D01*
X293551Y283056D01*
X293154Y282791D01*
X292889Y282394D01*
X292795Y281925D01*
Y279772D01*
X294500D01*
Y283150D01*
D02*
G37*
G36*
X119527Y287173D02*
X118473D01*
X117456Y286901D01*
X116544Y286374D01*
X115799Y285629D01*
X115273Y284717D01*
X115000Y283700D01*
Y282647D01*
X115273Y281629D01*
X115799Y280717D01*
X116544Y279972D01*
X117456Y279446D01*
X118473Y279173D01*
X119527D01*
X120544Y279446D01*
X121456Y279972D01*
X122201Y280717D01*
X122727Y281629D01*
X123000Y282647D01*
Y283700D01*
X122727Y284717D01*
X122201Y285629D01*
X121456Y286374D01*
X120544Y286901D01*
X119527Y287173D01*
D02*
G37*
G36*
X109527D02*
X108473D01*
X107456Y286901D01*
X106544Y286374D01*
X105799Y285629D01*
X105273Y284717D01*
X105000Y283700D01*
Y282647D01*
X105273Y281629D01*
X105799Y280717D01*
X106544Y279972D01*
X107456Y279446D01*
X108473Y279173D01*
X109527D01*
X110544Y279446D01*
X111456Y279972D01*
X112201Y280717D01*
X112727Y281629D01*
X113000Y282647D01*
Y283700D01*
X112727Y284717D01*
X112201Y285629D01*
X111456Y286374D01*
X110544Y286901D01*
X109527Y287173D01*
D02*
G37*
G36*
X297205Y278772D02*
X295500D01*
Y275394D01*
X295980D01*
X296449Y275487D01*
X296846Y275752D01*
X297111Y276150D01*
X297205Y276618D01*
Y278772D01*
D02*
G37*
G36*
X294500D02*
X292795D01*
Y276618D01*
X292889Y276150D01*
X293154Y275752D01*
X293551Y275487D01*
X294020Y275394D01*
X294500D01*
Y278772D01*
D02*
G37*
G36*
X197205D02*
X195500D01*
Y275394D01*
X195980D01*
X196449Y275487D01*
X196846Y275752D01*
X197111Y276150D01*
X197205Y276618D01*
Y278772D01*
D02*
G37*
G36*
X194500D02*
X192795D01*
Y276618D01*
X192889Y276150D01*
X193154Y275752D01*
X193551Y275487D01*
X194020Y275394D01*
X194500D01*
Y278772D01*
D02*
G37*
G36*
X185467Y287350D02*
X184533D01*
X183669Y286992D01*
X183008Y286331D01*
X182650Y285467D01*
Y284533D01*
X183008Y283669D01*
X183247Y283429D01*
X183197Y282820D01*
X183154Y282791D01*
X182889Y282394D01*
X182795Y281925D01*
Y276618D01*
X182889Y276150D01*
X183154Y275752D01*
X183551Y275487D01*
X184020Y275394D01*
X185980D01*
X186449Y275487D01*
X186846Y275752D01*
X187111Y276150D01*
X187205Y276618D01*
Y281925D01*
X187111Y282394D01*
X186846Y282791D01*
X186803Y282820D01*
X186752Y283429D01*
X186992Y283669D01*
X187350Y284533D01*
Y285467D01*
X186992Y286331D01*
X186331Y286992D01*
X185467Y287350D01*
D02*
G37*
G36*
X109527Y277173D02*
X109500D01*
Y273673D01*
X113000D01*
Y273700D01*
X112727Y274717D01*
X112201Y275629D01*
X111456Y276374D01*
X110544Y276901D01*
X109527Y277173D01*
D02*
G37*
G36*
X108500D02*
X108473D01*
X107456Y276901D01*
X106544Y276374D01*
X105799Y275629D01*
X105273Y274717D01*
X105000Y273700D01*
Y273673D01*
X108500D01*
Y277173D01*
D02*
G37*
G36*
X265980Y283150D02*
X264020D01*
X263551Y283056D01*
X263154Y282791D01*
X262889Y282394D01*
X262795Y281925D01*
Y276618D01*
X262889Y276150D01*
X263154Y275752D01*
X263179Y275502D01*
X263008Y275331D01*
X262650Y274467D01*
Y273533D01*
X263008Y272669D01*
X263669Y272008D01*
X264533Y271650D01*
X265467D01*
X266331Y272008D01*
X266992Y272669D01*
X267350Y273533D01*
Y274467D01*
X266992Y275331D01*
X266821Y275502D01*
X266846Y275752D01*
X267111Y276150D01*
X267205Y276618D01*
Y281925D01*
X267111Y282394D01*
X266846Y282791D01*
X266449Y283056D01*
X265980Y283150D01*
D02*
G37*
G36*
X180980D02*
X179020D01*
X178551Y283056D01*
X178154Y282791D01*
X177889Y282394D01*
X177795Y281925D01*
Y276618D01*
X177889Y276150D01*
X178154Y275752D01*
X178179Y275502D01*
X178008Y275331D01*
X177650Y274467D01*
Y273533D01*
X178008Y272669D01*
X178669Y272008D01*
X179533Y271650D01*
X180467D01*
X181331Y272008D01*
X181992Y272669D01*
X182350Y273533D01*
Y274467D01*
X181992Y275331D01*
X181821Y275502D01*
X181846Y275752D01*
X182111Y276150D01*
X182205Y276618D01*
Y281925D01*
X182111Y282394D01*
X181846Y282791D01*
X181449Y283056D01*
X180980Y283150D01*
D02*
G37*
G36*
X119527Y277173D02*
X118473D01*
X117456Y276901D01*
X116544Y276374D01*
X115799Y275629D01*
X115273Y274717D01*
X115000Y273700D01*
Y272647D01*
X115273Y271629D01*
X115799Y270717D01*
X116544Y269972D01*
X117456Y269446D01*
X118473Y269173D01*
X119527D01*
X120544Y269446D01*
X121456Y269972D01*
X122201Y270717D01*
X122727Y271629D01*
X123000Y272647D01*
Y273700D01*
X122727Y274717D01*
X122201Y275629D01*
X121456Y276374D01*
X120544Y276901D01*
X119527Y277173D01*
D02*
G37*
G36*
X113000Y272673D02*
X109500D01*
Y269173D01*
X109527D01*
X110544Y269446D01*
X111456Y269972D01*
X112201Y270717D01*
X112727Y271629D01*
X113000Y272647D01*
Y272673D01*
D02*
G37*
G36*
X108500D02*
X105000D01*
Y272647D01*
X105273Y271629D01*
X105799Y270717D01*
X106544Y269972D01*
X107456Y269446D01*
X108473Y269173D01*
X108500D01*
Y272673D01*
D02*
G37*
G36*
X119527Y267173D02*
X118473D01*
X117456Y266901D01*
X116544Y266374D01*
X115799Y265629D01*
X115273Y264717D01*
X115000Y263700D01*
Y262647D01*
X115273Y261629D01*
X115799Y260717D01*
X116544Y259972D01*
X117456Y259446D01*
X118473Y259173D01*
X119527D01*
X120544Y259446D01*
X121456Y259972D01*
X122201Y260717D01*
X122727Y261629D01*
X123000Y262647D01*
Y263700D01*
X122727Y264717D01*
X122201Y265629D01*
X121456Y266374D01*
X120544Y266901D01*
X119527Y267173D01*
D02*
G37*
G36*
X109527D02*
X108473D01*
X107456Y266901D01*
X106544Y266374D01*
X105799Y265629D01*
X105273Y264717D01*
X105000Y263700D01*
Y262647D01*
X105273Y261629D01*
X105799Y260717D01*
X106544Y259972D01*
X107456Y259446D01*
X108473Y259173D01*
X109527D01*
X110544Y259446D01*
X111456Y259972D01*
X112201Y260717D01*
X112727Y261629D01*
X113000Y262647D01*
Y263700D01*
X112727Y264717D01*
X112201Y265629D01*
X111456Y266374D01*
X110544Y266901D01*
X109527Y267173D01*
D02*
G37*
G36*
X290980Y283150D02*
X289020D01*
X288551Y283056D01*
X288154Y282791D01*
X287889Y282394D01*
X287795Y281925D01*
Y276618D01*
X287889Y276150D01*
X288154Y275752D01*
X288471Y275541D01*
Y256910D01*
X287971Y256776D01*
X287769Y257125D01*
X287125Y257769D01*
X286336Y258225D01*
X285456Y258461D01*
X284544D01*
X283664Y258225D01*
X282875Y257769D01*
X282231Y257125D01*
X281775Y256336D01*
X281539Y255456D01*
Y254544D01*
X281775Y253664D01*
X282231Y252875D01*
X282875Y252231D01*
X283664Y251775D01*
X284544Y251539D01*
X285456D01*
X286336Y251775D01*
X287125Y252231D01*
X287769Y252875D01*
X287971Y253224D01*
X288471Y253090D01*
Y251634D01*
X286938Y250101D01*
X286579Y250308D01*
X285539Y250587D01*
X284461D01*
X283421Y250308D01*
X282488Y249769D01*
X281727Y249008D01*
X281188Y248075D01*
X280909Y247035D01*
Y245957D01*
X281188Y244917D01*
X281727Y243984D01*
X282488Y243223D01*
X283421Y242684D01*
X284461Y242406D01*
X285539D01*
X286579Y242684D01*
X287512Y243223D01*
X288273Y243984D01*
X288812Y244917D01*
X289090Y245957D01*
Y247035D01*
X288902Y247739D01*
X291081Y249919D01*
X291413Y250415D01*
X291529Y251000D01*
Y275541D01*
X291846Y275752D01*
X292111Y276150D01*
X292205Y276618D01*
Y281925D01*
X292111Y282394D01*
X291846Y282791D01*
X291449Y283056D01*
X290980Y283150D01*
D02*
G37*
G36*
X190980D02*
X189020D01*
X188551Y283056D01*
X188154Y282791D01*
X187889Y282394D01*
X187795Y281925D01*
Y276618D01*
X187889Y276150D01*
X188154Y275752D01*
X188471Y275541D01*
Y256910D01*
X187971Y256776D01*
X187769Y257125D01*
X187125Y257769D01*
X186336Y258225D01*
X185456Y258461D01*
X184544D01*
X183664Y258225D01*
X182875Y257769D01*
X182231Y257125D01*
X181775Y256336D01*
X181539Y255456D01*
Y254544D01*
X181775Y253664D01*
X182231Y252875D01*
X182875Y252231D01*
X183664Y251775D01*
X184544Y251539D01*
X185456D01*
X186336Y251775D01*
X187125Y252231D01*
X187769Y252875D01*
X187971Y253224D01*
X188471Y253090D01*
Y251634D01*
X186938Y250101D01*
X186579Y250308D01*
X185538Y250587D01*
X184461D01*
X183421Y250308D01*
X182488Y249769D01*
X181727Y249008D01*
X181188Y248075D01*
X180909Y247035D01*
Y245957D01*
X181188Y244917D01*
X181727Y243984D01*
X182488Y243223D01*
X183421Y242684D01*
X184461Y242406D01*
X185538D01*
X186579Y242684D01*
X187512Y243223D01*
X188273Y243984D01*
X188812Y244917D01*
X189091Y245957D01*
Y247035D01*
X188902Y247739D01*
X191081Y249919D01*
X191413Y250415D01*
X191529Y251000D01*
Y275541D01*
X191846Y275752D01*
X192111Y276150D01*
X192205Y276618D01*
Y281925D01*
X192111Y282394D01*
X191846Y282791D01*
X191449Y283056D01*
X190980Y283150D01*
D02*
G37*
G36*
X119527Y257173D02*
X119500D01*
Y253673D01*
X123000D01*
Y253700D01*
X122727Y254717D01*
X122201Y255629D01*
X121456Y256374D01*
X120544Y256901D01*
X119527Y257173D01*
D02*
G37*
G36*
X118500D02*
X118473D01*
X117456Y256901D01*
X116544Y256374D01*
X115799Y255629D01*
X115273Y254717D01*
X115000Y253700D01*
Y253673D01*
X118500D01*
Y257173D01*
D02*
G37*
G36*
X235456Y258461D02*
X234544D01*
X233664Y258225D01*
X232875Y257769D01*
X232231Y257125D01*
X231775Y256336D01*
X231539Y255456D01*
Y254544D01*
X231775Y253664D01*
X232231Y252875D01*
X232875Y252231D01*
X233664Y251775D01*
X234544Y251539D01*
X235456D01*
X236336Y251775D01*
X237125Y252231D01*
X237769Y252875D01*
X238225Y253664D01*
X238461Y254544D01*
Y255456D01*
X238225Y256336D01*
X237769Y257125D01*
X237125Y257769D01*
X236336Y258225D01*
X235456Y258461D01*
D02*
G37*
G36*
X123000Y252673D02*
X119500D01*
Y249173D01*
X119527D01*
X120544Y249446D01*
X121456Y249972D01*
X122201Y250717D01*
X122727Y251629D01*
X123000Y252647D01*
Y252673D01*
D02*
G37*
G36*
X118500D02*
X115000D01*
Y252647D01*
X115273Y251629D01*
X115799Y250717D01*
X116544Y249972D01*
X117456Y249446D01*
X118473Y249173D01*
X118500D01*
Y252673D01*
D02*
G37*
G36*
X195538Y250587D02*
X195500D01*
Y246996D01*
X199091D01*
Y247035D01*
X198812Y248075D01*
X198273Y249008D01*
X197512Y249769D01*
X196579Y250308D01*
X195538Y250587D01*
D02*
G37*
G36*
X295538D02*
X295500D01*
Y246996D01*
X299091D01*
Y247035D01*
X298812Y248075D01*
X298273Y249008D01*
X297512Y249769D01*
X296579Y250308D01*
X295538Y250587D01*
D02*
G37*
G36*
X245538D02*
X245500D01*
Y246996D01*
X249091D01*
Y247035D01*
X248812Y248075D01*
X248273Y249008D01*
X247512Y249769D01*
X246579Y250308D01*
X245538Y250587D01*
D02*
G37*
G36*
X194500D02*
X194462D01*
X193421Y250308D01*
X192488Y249769D01*
X191727Y249008D01*
X191188Y248075D01*
X190909Y247035D01*
Y246996D01*
X194500D01*
Y250587D01*
D02*
G37*
G36*
X244500D02*
X244461D01*
X243421Y250308D01*
X242488Y249769D01*
X241727Y249008D01*
X241188Y248075D01*
X240910Y247035D01*
Y246996D01*
X244500D01*
Y250587D01*
D02*
G37*
G36*
X294500D02*
X294461D01*
X293421Y250308D01*
X292488Y249769D01*
X291727Y249008D01*
X291188Y248075D01*
X290910Y247035D01*
Y246996D01*
X294500D01*
Y250587D01*
D02*
G37*
G36*
X109527Y257173D02*
X108473D01*
X107456Y256901D01*
X106544Y256374D01*
X105799Y255629D01*
X105273Y254717D01*
X105000Y253700D01*
Y252647D01*
X105273Y251629D01*
X105799Y250717D01*
X106544Y249972D01*
X107456Y249446D01*
X108473Y249173D01*
X109527D01*
X110544Y249446D01*
X110557Y249453D01*
X112471Y247540D01*
Y246067D01*
X111971Y245860D01*
X111456Y246374D01*
X110544Y246901D01*
X109527Y247173D01*
X108473D01*
X107456Y246901D01*
X106544Y246374D01*
X105799Y245629D01*
X105273Y244717D01*
X105000Y243700D01*
Y242647D01*
X105273Y241629D01*
X105799Y240717D01*
X106544Y239972D01*
X107456Y239446D01*
X108473Y239173D01*
X109527D01*
X110544Y239446D01*
X110557Y239453D01*
X112471Y237540D01*
Y236067D01*
X111971Y235859D01*
X111456Y236374D01*
X110544Y236901D01*
X109527Y237173D01*
X108473D01*
X107456Y236901D01*
X106544Y236374D01*
X105799Y235629D01*
X105273Y234717D01*
X105000Y233700D01*
Y232647D01*
X105273Y231629D01*
X105799Y230717D01*
X106544Y229972D01*
X107456Y229446D01*
X108473Y229173D01*
X109527D01*
X110544Y229446D01*
X111456Y229972D01*
X111971Y230487D01*
X112471Y230280D01*
Y226067D01*
X111971Y225859D01*
X111456Y226374D01*
X110544Y226901D01*
X109527Y227173D01*
X109500D01*
Y223173D01*
Y219173D01*
X109527D01*
X110544Y219446D01*
X111456Y219972D01*
X112048Y220564D01*
X112576Y220435D01*
X112584Y220429D01*
X112587Y220415D01*
X112919Y219919D01*
X115919Y216919D01*
X116199Y216731D01*
X116301Y216170D01*
X116287Y216117D01*
X115799Y215629D01*
X115273Y214717D01*
X115000Y213700D01*
Y212647D01*
X115273Y211629D01*
X115799Y210717D01*
X116544Y209972D01*
X117456Y209446D01*
X118473Y209173D01*
X119527D01*
X120544Y209446D01*
X121456Y209972D01*
X122201Y210717D01*
X122727Y211629D01*
X123000Y212647D01*
Y213700D01*
X122727Y214717D01*
X122201Y215629D01*
X121860Y215971D01*
X122067Y216471D01*
X139366D01*
X156919Y198919D01*
X157415Y198587D01*
X158000Y198471D01*
X195367D01*
X213471Y180367D01*
Y178003D01*
X213154Y177791D01*
X212889Y177394D01*
X212795Y176925D01*
Y171618D01*
X212889Y171150D01*
X213154Y170752D01*
X213179Y170502D01*
X213008Y170331D01*
X212650Y169467D01*
Y168533D01*
X213008Y167669D01*
X213669Y167008D01*
X214533Y166650D01*
X215467D01*
X216331Y167008D01*
X216992Y167669D01*
X217350Y168533D01*
Y169467D01*
X216992Y170331D01*
X216821Y170502D01*
X216846Y170752D01*
X217111Y171150D01*
X217205Y171618D01*
Y176925D01*
X217111Y177394D01*
X216846Y177791D01*
X216529Y178003D01*
Y180601D01*
X217029Y180808D01*
X218471Y179367D01*
Y178003D01*
X218154Y177791D01*
X217889Y177394D01*
X217795Y176925D01*
Y171618D01*
X217889Y171150D01*
X218154Y170752D01*
X218551Y170487D01*
X219020Y170394D01*
X220980D01*
X221449Y170487D01*
X221846Y170752D01*
X222111Y171150D01*
X222205Y171618D01*
Y176925D01*
X222111Y177394D01*
X221846Y177791D01*
X221529Y178003D01*
Y179367D01*
X225634Y183471D01*
X235000D01*
X235585Y183587D01*
X236081Y183919D01*
X241081Y188919D01*
X241413Y189415D01*
X241529Y190000D01*
Y191998D01*
X241846Y192209D01*
X242111Y192606D01*
X242205Y193075D01*
Y198382D01*
X242111Y198850D01*
X241846Y199248D01*
X241449Y199513D01*
X240980Y199606D01*
X239020D01*
X238551Y199513D01*
X238154Y199248D01*
X237889Y198850D01*
X237795Y198382D01*
Y193075D01*
X237889Y192606D01*
X238154Y192209D01*
X238471Y191998D01*
Y190633D01*
X236951Y189114D01*
X236489Y189305D01*
Y191971D01*
X236846Y192209D01*
X237111Y192606D01*
X237205Y193075D01*
Y198382D01*
X237111Y198850D01*
X236846Y199248D01*
X236449Y199513D01*
X235980Y199606D01*
X234020D01*
X233551Y199513D01*
X233154Y199248D01*
X232889Y198850D01*
X232795Y198382D01*
Y193075D01*
X232889Y192606D01*
X233154Y192209D01*
X233430Y192024D01*
Y188593D01*
X233366Y188529D01*
X227476D01*
X227142Y189029D01*
X227350Y189533D01*
Y190467D01*
X226992Y191331D01*
X226752Y191571D01*
X226803Y192181D01*
X226846Y192209D01*
X227111Y192606D01*
X227205Y193075D01*
Y198382D01*
X227111Y198850D01*
X226846Y199248D01*
X226449Y199513D01*
X225980Y199606D01*
X224958D01*
X217483Y207081D01*
X216987Y207413D01*
X216402Y207529D01*
X161634D01*
X124893Y244270D01*
X124397Y244601D01*
X123811Y244718D01*
X123735Y244703D01*
X122731D01*
X122727Y244717D01*
X122201Y245629D01*
X121456Y246374D01*
X120544Y246901D01*
X119527Y247173D01*
X118473D01*
X117456Y246901D01*
X116544Y246374D01*
X116029Y245860D01*
X115529Y246067D01*
Y248173D01*
X115413Y248759D01*
X115081Y249255D01*
X112720Y251616D01*
X112727Y251629D01*
X113000Y252647D01*
Y253700D01*
X112727Y254717D01*
X112201Y255629D01*
X111456Y256374D01*
X110544Y256901D01*
X109527Y257173D01*
D02*
G37*
G36*
X299091Y245996D02*
X295500D01*
Y242406D01*
X295538D01*
X296579Y242684D01*
X297512Y243223D01*
X298273Y243984D01*
X298812Y244917D01*
X299091Y245957D01*
Y245996D01*
D02*
G37*
G36*
X294500D02*
X290910D01*
Y245957D01*
X291188Y244917D01*
X291727Y243984D01*
X292488Y243223D01*
X293421Y242684D01*
X294461Y242406D01*
X294500D01*
Y245996D01*
D02*
G37*
G36*
X275980Y283150D02*
X274020D01*
X273551Y283056D01*
X273154Y282791D01*
X272889Y282394D01*
X272795Y281925D01*
Y276618D01*
X272889Y276150D01*
X273154Y275752D01*
X273471Y275541D01*
Y250321D01*
X273421Y250308D01*
X272488Y249769D01*
X271727Y249008D01*
X271188Y248075D01*
X270910Y247035D01*
Y245957D01*
X271188Y244917D01*
X271727Y243984D01*
X272488Y243223D01*
X273421Y242684D01*
X274462Y242406D01*
X275538D01*
X276579Y242684D01*
X277512Y243223D01*
X278273Y243984D01*
X278812Y244917D01*
X279090Y245957D01*
Y247035D01*
X278812Y248075D01*
X278273Y249008D01*
X277512Y249769D01*
X276579Y250308D01*
X276529Y250321D01*
Y275541D01*
X276846Y275752D01*
X277111Y276150D01*
X277205Y276618D01*
Y281925D01*
X277111Y282394D01*
X276846Y282791D01*
X276449Y283056D01*
X275980Y283150D01*
D02*
G37*
G36*
X269091Y250587D02*
X260910D01*
Y242406D01*
X269091D01*
Y250587D01*
D02*
G37*
G36*
X249091Y245996D02*
X245500D01*
Y242406D01*
X245538D01*
X246579Y242684D01*
X247512Y243223D01*
X248273Y243984D01*
X248812Y244917D01*
X249091Y245957D01*
Y245996D01*
D02*
G37*
G36*
X244500D02*
X240910D01*
Y245957D01*
X241188Y244917D01*
X241727Y243984D01*
X242488Y243223D01*
X243421Y242684D01*
X244461Y242406D01*
X244500D01*
Y245996D01*
D02*
G37*
G36*
X219091Y250587D02*
X210910D01*
Y242406D01*
X219091D01*
Y250587D01*
D02*
G37*
G36*
X199091Y245996D02*
X195500D01*
Y242406D01*
X195538D01*
X196579Y242684D01*
X197512Y243223D01*
X198273Y243984D01*
X198812Y244917D01*
X199091Y245957D01*
Y245996D01*
D02*
G37*
G36*
X194500D02*
X190909D01*
Y245957D01*
X191188Y244917D01*
X191727Y243984D01*
X192488Y243223D01*
X193421Y242684D01*
X194462Y242406D01*
X194500D01*
Y245996D01*
D02*
G37*
G36*
X175980Y283150D02*
X174020D01*
X173551Y283056D01*
X173154Y282791D01*
X172889Y282394D01*
X172795Y281925D01*
Y276618D01*
X172889Y276150D01*
X173154Y275752D01*
X173471Y275541D01*
Y250321D01*
X173421Y250308D01*
X172488Y249769D01*
X171727Y249008D01*
X171188Y248075D01*
X170909Y247035D01*
Y245957D01*
X171188Y244917D01*
X171727Y243984D01*
X172488Y243223D01*
X173421Y242684D01*
X174461Y242406D01*
X175539D01*
X176579Y242684D01*
X177512Y243223D01*
X178273Y243984D01*
X178812Y244917D01*
X179091Y245957D01*
Y247035D01*
X178812Y248075D01*
X178273Y249008D01*
X177512Y249769D01*
X176579Y250308D01*
X176529Y250321D01*
Y275541D01*
X176846Y275752D01*
X177111Y276150D01*
X177205Y276618D01*
Y281925D01*
X177111Y282394D01*
X176846Y282791D01*
X176449Y283056D01*
X175980Y283150D01*
D02*
G37*
G36*
X108500Y227173D02*
X108473D01*
X107456Y226901D01*
X106544Y226374D01*
X105799Y225629D01*
X105273Y224717D01*
X105000Y223700D01*
Y223673D01*
X108500D01*
Y227173D01*
D02*
G37*
G36*
Y222673D02*
X105000D01*
Y222647D01*
X105273Y221629D01*
X105799Y220717D01*
X106544Y219972D01*
X107456Y219446D01*
X108473Y219173D01*
X108500D01*
Y222673D01*
D02*
G37*
G36*
X165980Y283150D02*
X164020D01*
X163551Y283056D01*
X163154Y282791D01*
X162889Y282394D01*
X162795Y281925D01*
Y276618D01*
X162889Y276150D01*
X163154Y275752D01*
X163179Y275502D01*
X163008Y275331D01*
X162650Y274467D01*
Y273813D01*
X161293Y272456D01*
X161201Y272394D01*
X155919Y267112D01*
X155587Y266616D01*
X155471Y266031D01*
Y224664D01*
X155157Y224350D01*
X154533D01*
X153669Y223992D01*
X153008Y223331D01*
X152650Y222467D01*
Y221533D01*
X153008Y220669D01*
X153669Y220008D01*
X154533Y219650D01*
X155467D01*
X156331Y220008D01*
X156971Y220647D01*
X157082Y220640D01*
X157471Y220517D01*
Y219794D01*
X157008Y219331D01*
X156650Y218467D01*
Y217533D01*
X157008Y216669D01*
X157669Y216008D01*
X158533Y215650D01*
X159467D01*
X160331Y216008D01*
X160992Y216669D01*
X161350Y217533D01*
Y218467D01*
X160992Y219331D01*
X160529Y219794D01*
Y242116D01*
X160909Y242406D01*
X161029Y242406D01*
X169091D01*
Y250587D01*
X161029D01*
X160909Y250587D01*
X160529Y250876D01*
Y263367D01*
X160813Y263650D01*
X161467D01*
X162331Y264008D01*
X162992Y264669D01*
X163350Y265533D01*
Y266467D01*
X162992Y267331D01*
X162331Y267992D01*
X161894Y268173D01*
X161796Y268664D01*
X163302Y270170D01*
X163394Y270231D01*
X164813Y271650D01*
X165467D01*
X166331Y272008D01*
X166992Y272669D01*
X167350Y273533D01*
Y274467D01*
X166992Y275331D01*
X166821Y275502D01*
X166846Y275752D01*
X167111Y276150D01*
X167205Y276618D01*
Y281925D01*
X167111Y282394D01*
X166846Y282791D01*
X166449Y283056D01*
X165980Y283150D01*
D02*
G37*
G36*
X109527Y217173D02*
X108473D01*
X107456Y216901D01*
X106544Y216374D01*
X105799Y215629D01*
X105273Y214717D01*
X105000Y213700D01*
Y212647D01*
X105273Y211629D01*
X105799Y210717D01*
X106544Y209972D01*
X107456Y209446D01*
X108473Y209173D01*
X109527D01*
X110544Y209446D01*
X111456Y209972D01*
X112201Y210717D01*
X112727Y211629D01*
X113000Y212647D01*
Y213700D01*
X112727Y214717D01*
X112201Y215629D01*
X111456Y216374D01*
X110544Y216901D01*
X109527Y217173D01*
D02*
G37*
G36*
X280598Y209543D02*
X280500D01*
Y205500D01*
X284543D01*
Y205598D01*
X284234Y206754D01*
X283635Y207790D01*
X282790Y208635D01*
X281754Y209234D01*
X280598Y209543D01*
D02*
G37*
G36*
X279500D02*
X279402D01*
X278246Y209234D01*
X277210Y208635D01*
X276364Y207790D01*
X275766Y206754D01*
X275457Y205598D01*
Y205500D01*
X279500D01*
Y209543D01*
D02*
G37*
G36*
X141467Y210350D02*
X140533D01*
X139669Y209992D01*
X139008Y209331D01*
X138650Y208467D01*
Y207813D01*
X123500Y192663D01*
X123000Y192870D01*
Y193700D01*
X122727Y194717D01*
X122201Y195629D01*
X121456Y196374D01*
X120544Y196901D01*
X119527Y197173D01*
X118473D01*
X117456Y196901D01*
X116544Y196374D01*
X115799Y195629D01*
X115273Y194717D01*
X115000Y193700D01*
Y192647D01*
X115273Y191629D01*
X115799Y190717D01*
X116487Y190029D01*
X116406Y189529D01*
X113827D01*
X113242Y189413D01*
X112745Y189081D01*
X110557Y186893D01*
X110544Y186901D01*
X109527Y187173D01*
X108473D01*
X107456Y186901D01*
X106544Y186374D01*
X105799Y185629D01*
X105273Y184717D01*
X105000Y183700D01*
Y182647D01*
X105273Y181629D01*
X105799Y180717D01*
X106544Y179972D01*
X107456Y179446D01*
X108473Y179173D01*
X109527D01*
X110544Y179446D01*
X111456Y179972D01*
X112201Y180717D01*
X112727Y181629D01*
X113000Y182647D01*
Y183700D01*
X112727Y184717D01*
X112720Y184730D01*
X114460Y186471D01*
X115933D01*
X116140Y185971D01*
X115799Y185629D01*
X115273Y184717D01*
X115000Y183700D01*
Y182647D01*
X115273Y181629D01*
X115799Y180717D01*
X116487Y180029D01*
X116406Y179529D01*
X113827D01*
X113242Y179413D01*
X112745Y179081D01*
X110557Y176893D01*
X110544Y176901D01*
X109527Y177173D01*
X108473D01*
X107456Y176901D01*
X106544Y176374D01*
X105799Y175629D01*
X105273Y174717D01*
X105000Y173700D01*
Y172647D01*
X105273Y171629D01*
X105799Y170717D01*
X106544Y169972D01*
X107456Y169446D01*
X108473Y169173D01*
X109527D01*
X110544Y169446D01*
X111456Y169972D01*
X112201Y170717D01*
X112727Y171629D01*
X113000Y172647D01*
Y173700D01*
X112727Y174717D01*
X112720Y174730D01*
X114460Y176471D01*
X115933D01*
X116140Y175971D01*
X115799Y175629D01*
X115273Y174717D01*
X115000Y173700D01*
Y173673D01*
X119000D01*
X123000D01*
Y173700D01*
X122727Y174717D01*
X122201Y175629D01*
X121860Y175971D01*
X122067Y176471D01*
X127000D01*
X127585Y176587D01*
X128081Y176919D01*
X142133Y190971D01*
X164694D01*
X164699Y190947D01*
X164962Y190553D01*
X165357Y190290D01*
X165531Y190255D01*
Y189745D01*
X165357Y189710D01*
X164962Y189447D01*
X164699Y189053D01*
X164694Y189029D01*
X164500D01*
X163915Y188913D01*
X163419Y188581D01*
X162245Y187408D01*
X161914Y186912D01*
X161797Y186327D01*
Y183133D01*
X160214Y181550D01*
X140021D01*
X139435Y181434D01*
X138939Y181102D01*
X122954Y165117D01*
X122459Y165183D01*
X122201Y165629D01*
X121456Y166374D01*
X120544Y166901D01*
X119527Y167173D01*
X118473D01*
X117456Y166901D01*
X116544Y166374D01*
X115799Y165629D01*
X115273Y164717D01*
X115000Y163700D01*
Y162647D01*
X115273Y161629D01*
X115799Y160717D01*
X115852Y160665D01*
X115661Y160203D01*
X114134D01*
X112720Y161616D01*
X112727Y161629D01*
X113000Y162647D01*
Y163700D01*
X112727Y164717D01*
X112201Y165629D01*
X111456Y166374D01*
X110544Y166901D01*
X109527Y167173D01*
X108473D01*
X107456Y166901D01*
X106544Y166374D01*
X105799Y165629D01*
X105273Y164717D01*
X105000Y163700D01*
Y162647D01*
X105273Y161629D01*
X105799Y160717D01*
X106544Y159972D01*
X107456Y159446D01*
X108473Y159173D01*
X109527D01*
X110544Y159446D01*
X110557Y159453D01*
X112419Y157592D01*
X112915Y157260D01*
X113500Y157144D01*
X116877D01*
X117011Y156644D01*
X116544Y156374D01*
X115799Y155629D01*
X115273Y154717D01*
X115000Y153700D01*
Y152647D01*
X115273Y151629D01*
X115799Y150717D01*
X116544Y149972D01*
X117456Y149446D01*
X118473Y149173D01*
X119527D01*
X120544Y149446D01*
X121456Y149972D01*
X122201Y150717D01*
X122727Y151629D01*
X123000Y152647D01*
Y153700D01*
X122727Y154717D01*
X122201Y155629D01*
X121456Y156374D01*
X120989Y156644D01*
X121123Y157144D01*
X121673D01*
X122258Y157260D01*
X122755Y157592D01*
X141133Y175971D01*
X164694D01*
X164699Y175947D01*
X164962Y175553D01*
X165357Y175290D01*
X165822Y175197D01*
X171934D01*
X172399Y175290D01*
X172793Y175553D01*
X173057Y175947D01*
X173149Y176412D01*
Y178588D01*
X173057Y179053D01*
X172793Y179447D01*
X172399Y179710D01*
X172224Y179745D01*
Y180255D01*
X172399Y180290D01*
X172793Y180553D01*
X173057Y180947D01*
X173149Y181412D01*
Y183588D01*
X173057Y184053D01*
X172793Y184447D01*
X172399Y184710D01*
X172224Y184745D01*
Y185255D01*
X172399Y185290D01*
X172793Y185553D01*
X173057Y185947D01*
X173149Y186412D01*
Y188588D01*
X173057Y189053D01*
X172793Y189447D01*
X172399Y189710D01*
X172224Y189745D01*
Y190255D01*
X172399Y190290D01*
X172793Y190553D01*
X173057Y190947D01*
X173149Y191412D01*
Y193588D01*
X173057Y194053D01*
X172793Y194447D01*
X172399Y194710D01*
X171934Y194803D01*
X165822D01*
X165357Y194710D01*
X164962Y194447D01*
X164699Y194053D01*
X164694Y194029D01*
X141500D01*
X140915Y193913D01*
X140419Y193581D01*
X126366Y179529D01*
X121594D01*
X121513Y180029D01*
X122201Y180717D01*
X122727Y181629D01*
X123000Y182647D01*
Y183700D01*
X122727Y184717D01*
X122721Y184729D01*
X141417Y203426D01*
X143897D01*
X144360Y202963D01*
X145223Y202605D01*
X146158D01*
X147022Y202963D01*
X147683Y203624D01*
X148041Y204488D01*
Y205423D01*
X147683Y206287D01*
X147022Y206948D01*
X146158Y207305D01*
X145223D01*
X144360Y206948D01*
X143923Y206511D01*
X143420Y206541D01*
X143123Y206985D01*
X143350Y207533D01*
Y208467D01*
X142992Y209331D01*
X142331Y209992D01*
X141467Y210350D01*
D02*
G37*
G36*
X284543Y204500D02*
X280500D01*
Y200457D01*
X280598D01*
X281754Y200766D01*
X282790Y201364D01*
X283635Y202210D01*
X284234Y203246D01*
X284543Y204402D01*
Y204500D01*
D02*
G37*
G36*
X279500D02*
X275457D01*
Y204402D01*
X275766Y203246D01*
X276364Y202210D01*
X277210Y201364D01*
X278246Y200766D01*
X279402Y200457D01*
X279500D01*
Y204500D01*
D02*
G37*
G36*
X119527Y207173D02*
X118473D01*
X117456Y206901D01*
X116544Y206374D01*
X115799Y205629D01*
X115273Y204717D01*
X115000Y203700D01*
Y202647D01*
X115273Y201629D01*
X115799Y200717D01*
X116544Y199972D01*
X117456Y199446D01*
X118473Y199173D01*
X119527D01*
X120544Y199446D01*
X121456Y199972D01*
X122201Y200717D01*
X122727Y201629D01*
X123000Y202647D01*
Y203700D01*
X122727Y204717D01*
X122201Y205629D01*
X121456Y206374D01*
X120544Y206901D01*
X119527Y207173D01*
D02*
G37*
G36*
X109527D02*
X108473D01*
X107456Y206901D01*
X106544Y206374D01*
X105799Y205629D01*
X105273Y204717D01*
X105000Y203700D01*
Y202647D01*
X105273Y201629D01*
X105799Y200717D01*
X106544Y199972D01*
X107456Y199446D01*
X108473Y199173D01*
X109527D01*
X110544Y199446D01*
X111456Y199972D01*
X112201Y200717D01*
X112727Y201629D01*
X113000Y202647D01*
Y203700D01*
X112727Y204717D01*
X112201Y205629D01*
X111456Y206374D01*
X110544Y206901D01*
X109527Y207173D01*
D02*
G37*
G36*
X245000Y206529D02*
X234000D01*
X233415Y206413D01*
X232919Y206081D01*
X228919Y202081D01*
X228587Y201585D01*
X228471Y201000D01*
Y199459D01*
X228154Y199248D01*
X227889Y198850D01*
X227795Y198382D01*
Y193075D01*
X227889Y192606D01*
X228154Y192209D01*
X228551Y191944D01*
X229020Y191850D01*
X230980D01*
X231449Y191944D01*
X231846Y192209D01*
X232111Y192606D01*
X232205Y193075D01*
Y198382D01*
X232111Y198850D01*
X231846Y199248D01*
X231529Y199459D01*
Y200366D01*
X234633Y203471D01*
X244367D01*
X247471Y200366D01*
Y199213D01*
X246971Y199061D01*
X246846Y199248D01*
X246449Y199513D01*
X245980Y199606D01*
X244020D01*
X243551Y199513D01*
X243154Y199248D01*
X242889Y198850D01*
X242795Y198382D01*
Y193075D01*
X242889Y192606D01*
X243154Y192209D01*
X243471Y191998D01*
Y189000D01*
X243587Y188415D01*
X243919Y187919D01*
X273471Y158367D01*
Y145321D01*
X273421Y145308D01*
X272488Y144769D01*
X271727Y144008D01*
X271188Y143075D01*
X270910Y142035D01*
Y140957D01*
X271188Y139917D01*
X271727Y138984D01*
X272488Y138223D01*
X273421Y137684D01*
X274462Y137406D01*
X275538D01*
X276579Y137684D01*
X277512Y138223D01*
X278273Y138984D01*
X278812Y139917D01*
X279090Y140957D01*
Y142035D01*
X278812Y143075D01*
X278273Y144008D01*
X277512Y144769D01*
X276579Y145308D01*
X276529Y145321D01*
Y147119D01*
X276592Y147167D01*
X277029Y147304D01*
X281214Y143119D01*
X281188Y143075D01*
X280909Y142035D01*
Y140957D01*
X281188Y139917D01*
X281727Y138984D01*
X282488Y138223D01*
X283421Y137684D01*
X284461Y137406D01*
X285539D01*
X286579Y137684D01*
X287512Y138223D01*
X288273Y138984D01*
X288812Y139917D01*
X289090Y140957D01*
Y142035D01*
X288812Y143075D01*
X288273Y144008D01*
X287512Y144769D01*
X286579Y145308D01*
X285539Y145587D01*
X284461D01*
X283421Y145308D01*
X283377Y145282D01*
X279529Y149129D01*
Y159000D01*
X279413Y159585D01*
X279081Y160081D01*
X250529Y188634D01*
Y201000D01*
X250413Y201585D01*
X250081Y202081D01*
X246081Y206081D01*
X245585Y206413D01*
X245000Y206529D01*
D02*
G37*
G36*
X109527Y197173D02*
X109500D01*
Y193673D01*
X113000D01*
Y193700D01*
X112727Y194717D01*
X112201Y195629D01*
X111456Y196374D01*
X110544Y196901D01*
X109527Y197173D01*
D02*
G37*
G36*
X108500D02*
X108473D01*
X107456Y196901D01*
X106544Y196374D01*
X105799Y195629D01*
X105273Y194717D01*
X105000Y193700D01*
Y193673D01*
X108500D01*
Y197173D01*
D02*
G37*
G36*
X194178Y194803D02*
X188066D01*
X187601Y194710D01*
X187207Y194447D01*
X186943Y194053D01*
X186851Y193588D01*
Y192360D01*
X186407Y191916D01*
X186331Y191992D01*
X185467Y192350D01*
X184533D01*
X183669Y191992D01*
X183008Y191331D01*
X182650Y190467D01*
Y189533D01*
X183008Y188669D01*
X183669Y188008D01*
X184533Y187650D01*
X185467D01*
X186331Y188008D01*
X186389Y188065D01*
X186851Y187874D01*
Y186412D01*
X186943Y185947D01*
X187207Y185553D01*
X187601Y185290D01*
X187776Y185255D01*
Y184745D01*
X187601Y184710D01*
X187207Y184447D01*
X186943Y184053D01*
X186939Y184029D01*
X185000D01*
X184415Y183913D01*
X183919Y183581D01*
X178919Y178581D01*
X178587Y178085D01*
X178471Y177500D01*
Y141387D01*
X177694Y140938D01*
X176995Y140239D01*
X176500Y139383D01*
X176244Y138427D01*
Y137439D01*
X176500Y136483D01*
X176995Y135627D01*
X177694Y134928D01*
X178550Y134433D01*
X179506Y134177D01*
X180494D01*
X181450Y134433D01*
X182306Y134928D01*
X183005Y135627D01*
X183500Y136483D01*
X183756Y137439D01*
Y138427D01*
X183500Y139383D01*
X183005Y140239D01*
X182306Y140938D01*
X181529Y141387D01*
Y176866D01*
X185634Y180971D01*
X186939D01*
X186943Y180947D01*
X187207Y180553D01*
X187601Y180290D01*
X187776Y180255D01*
Y179745D01*
X187601Y179710D01*
X187207Y179447D01*
X186943Y179053D01*
X186851Y178588D01*
Y178000D01*
X191122D01*
X195393D01*
Y178588D01*
X195301Y179053D01*
X195037Y179447D01*
X194643Y179710D01*
X194469Y179745D01*
Y180255D01*
X194643Y180290D01*
X195037Y180553D01*
X195301Y180947D01*
X195393Y181412D01*
Y183588D01*
X195301Y184053D01*
X195037Y184447D01*
X194643Y184710D01*
X194469Y184745D01*
Y185255D01*
X194643Y185290D01*
X195037Y185553D01*
X195301Y185947D01*
X195306Y185971D01*
X195867D01*
X198278Y183559D01*
Y163441D01*
X188761Y153924D01*
X188429Y153428D01*
X188313Y152842D01*
Y141387D01*
X187536Y140938D01*
X186837Y140239D01*
X186343Y139383D01*
X186087Y138427D01*
Y137439D01*
X186343Y136483D01*
X186837Y135627D01*
X187536Y134928D01*
X188393Y134433D01*
X189348Y134177D01*
X190337D01*
X191292Y134433D01*
X192149Y134928D01*
X192848Y135627D01*
X193342Y136483D01*
X193598Y137439D01*
Y138427D01*
X193342Y139383D01*
X192848Y140239D01*
X192149Y140938D01*
X191372Y141387D01*
Y152209D01*
X200888Y161726D01*
X201220Y162222D01*
X201337Y162807D01*
Y184193D01*
X201220Y184778D01*
X200888Y185274D01*
X197581Y188581D01*
X197085Y188913D01*
X196500Y189029D01*
X195306D01*
X195301Y189053D01*
X195037Y189447D01*
X194643Y189710D01*
X194469Y189745D01*
Y190255D01*
X194643Y190290D01*
X195037Y190553D01*
X195301Y190947D01*
X195393Y191412D01*
Y193588D01*
X195301Y194053D01*
X195037Y194447D01*
X194643Y194710D01*
X194178Y194803D01*
D02*
G37*
G36*
X113000Y192673D02*
X109500D01*
Y189173D01*
X109527D01*
X110544Y189446D01*
X111456Y189972D01*
X112201Y190717D01*
X112727Y191629D01*
X113000Y192647D01*
Y192673D01*
D02*
G37*
G36*
X108500D02*
X105000D01*
Y192647D01*
X105273Y191629D01*
X105799Y190717D01*
X106544Y189972D01*
X107456Y189446D01*
X108473Y189173D01*
X108500D01*
Y192673D01*
D02*
G37*
G36*
X284543Y189543D02*
X275457D01*
Y180457D01*
X284543D01*
Y189543D01*
D02*
G37*
G36*
X195393Y177000D02*
X191622D01*
Y175197D01*
X194178D01*
X194643Y175290D01*
X195037Y175553D01*
X195301Y175947D01*
X195393Y176412D01*
Y177000D01*
D02*
G37*
G36*
X190622D02*
X186851D01*
Y176412D01*
X186943Y175947D01*
X187207Y175553D01*
X187601Y175290D01*
X188066Y175197D01*
X190622D01*
Y177000D01*
D02*
G37*
G36*
X245980Y178149D02*
X245500D01*
Y174772D01*
X247205D01*
Y176925D01*
X247111Y177394D01*
X246846Y177791D01*
X246449Y178056D01*
X245980Y178149D01*
D02*
G37*
G36*
X244500D02*
X244020D01*
X243551Y178056D01*
X243154Y177791D01*
X242889Y177394D01*
X242795Y176925D01*
Y174772D01*
X244500D01*
Y178149D01*
D02*
G37*
G36*
X247205Y173772D02*
X245500D01*
Y170394D01*
X245980D01*
X246449Y170487D01*
X246846Y170752D01*
X247111Y171150D01*
X247205Y171618D01*
Y173772D01*
D02*
G37*
G36*
X244500D02*
X242795D01*
Y171618D01*
X242889Y171150D01*
X243154Y170752D01*
X243551Y170487D01*
X244020Y170394D01*
X244500D01*
Y173772D01*
D02*
G37*
G36*
X235467Y182350D02*
X234533D01*
X233669Y181992D01*
X233008Y181331D01*
X232650Y180467D01*
Y179533D01*
X233008Y178669D01*
X233247Y178429D01*
X233197Y177820D01*
X233154Y177791D01*
X232889Y177394D01*
X232795Y176925D01*
Y171618D01*
X232889Y171150D01*
X233154Y170752D01*
X233551Y170487D01*
X234020Y170394D01*
X235980D01*
X236449Y170487D01*
X236846Y170752D01*
X237111Y171150D01*
X237205Y171618D01*
Y176925D01*
X237111Y177394D01*
X236846Y177791D01*
X236803Y177820D01*
X236753Y178429D01*
X236992Y178669D01*
X237350Y179533D01*
Y180467D01*
X236992Y181331D01*
X236331Y181992D01*
X235467Y182350D01*
D02*
G37*
G36*
X123000Y172673D02*
X119500D01*
Y169173D01*
X119527D01*
X120544Y169446D01*
X121456Y169972D01*
X122201Y170717D01*
X122727Y171629D01*
X123000Y172647D01*
Y172673D01*
D02*
G37*
G36*
X118500D02*
X115000D01*
Y172647D01*
X115273Y171629D01*
X115799Y170717D01*
X116544Y169972D01*
X117456Y169446D01*
X118473Y169173D01*
X118500D01*
Y172673D01*
D02*
G37*
G36*
X230980Y178149D02*
X229020D01*
X228551Y178056D01*
X228154Y177791D01*
X227889Y177394D01*
X227795Y176925D01*
Y171618D01*
X227889Y171150D01*
X228154Y170752D01*
X228179Y170502D01*
X228008Y170331D01*
X227650Y169467D01*
Y168533D01*
X228008Y167669D01*
X228669Y167008D01*
X229533Y166650D01*
X230467D01*
X231331Y167008D01*
X231992Y167669D01*
X232350Y168533D01*
Y169467D01*
X231992Y170331D01*
X231821Y170502D01*
X231846Y170752D01*
X232111Y171150D01*
X232205Y171618D01*
Y176925D01*
X232111Y177394D01*
X231846Y177791D01*
X231449Y178056D01*
X230980Y178149D01*
D02*
G37*
G36*
X109527Y157173D02*
X109500D01*
Y153673D01*
X113000D01*
Y153700D01*
X112727Y154717D01*
X112201Y155629D01*
X111456Y156374D01*
X110544Y156901D01*
X109527Y157173D01*
D02*
G37*
G36*
X108500D02*
X108473D01*
X107456Y156901D01*
X106544Y156374D01*
X105799Y155629D01*
X105273Y154717D01*
X105000Y153700D01*
Y153673D01*
X108500D01*
Y157173D01*
D02*
G37*
G36*
X240980Y178149D02*
X239020D01*
X238551Y178056D01*
X238154Y177791D01*
X237889Y177394D01*
X237795Y176925D01*
Y171618D01*
X237889Y171150D01*
X238154Y170752D01*
X238471Y170541D01*
Y151910D01*
X237971Y151776D01*
X237769Y152125D01*
X237125Y152769D01*
X236336Y153225D01*
X235456Y153461D01*
X234544D01*
X233664Y153225D01*
X232875Y152769D01*
X232231Y152125D01*
X231775Y151336D01*
X231539Y150456D01*
Y149544D01*
X231775Y148664D01*
X232231Y147875D01*
X232875Y147231D01*
X233664Y146775D01*
X234544Y146539D01*
X235456D01*
X236336Y146775D01*
X237125Y147231D01*
X237769Y147875D01*
X237971Y148224D01*
X238471Y148090D01*
Y147129D01*
X236623Y145282D01*
X236579Y145308D01*
X235539Y145587D01*
X234461D01*
X233421Y145308D01*
X232488Y144769D01*
X231727Y144008D01*
X231188Y143075D01*
X230909Y142035D01*
Y140957D01*
X231188Y139917D01*
X231727Y138984D01*
X232488Y138223D01*
X233421Y137684D01*
X234461Y137406D01*
X235539D01*
X236579Y137684D01*
X237512Y138223D01*
X238273Y138984D01*
X238812Y139917D01*
X239090Y140957D01*
Y142035D01*
X238812Y143075D01*
X238786Y143119D01*
X241081Y145415D01*
X241413Y145911D01*
X241529Y146496D01*
X241479Y146748D01*
X241529Y147000D01*
Y170541D01*
X241846Y170752D01*
X242111Y171150D01*
X242205Y171618D01*
Y176925D01*
X242111Y177394D01*
X241846Y177791D01*
X241449Y178056D01*
X240980Y178149D01*
D02*
G37*
G36*
X113000Y152673D02*
X109500D01*
Y149173D01*
X109527D01*
X110544Y149446D01*
X111456Y149972D01*
X112201Y150717D01*
X112727Y151629D01*
X113000Y152647D01*
Y152673D01*
D02*
G37*
G36*
X108500D02*
X105000D01*
Y152647D01*
X105273Y151629D01*
X105799Y150717D01*
X106544Y149972D01*
X107456Y149446D01*
X108473Y149173D01*
X108500D01*
Y152673D01*
D02*
G37*
G36*
X285456Y153461D02*
X284544D01*
X283664Y153225D01*
X282875Y152769D01*
X282231Y152125D01*
X281775Y151336D01*
X281539Y150456D01*
Y149544D01*
X281775Y148664D01*
X282231Y147875D01*
X282875Y147231D01*
X283664Y146775D01*
X284544Y146539D01*
X285456D01*
X286336Y146775D01*
X287125Y147231D01*
X287769Y147875D01*
X288225Y148664D01*
X288461Y149544D01*
Y150456D01*
X288225Y151336D01*
X287769Y152125D01*
X287125Y152769D01*
X286336Y153225D01*
X285456Y153461D01*
D02*
G37*
G36*
X196558Y148972D02*
X195725D01*
X194920Y148757D01*
X194198Y148340D01*
X193609Y147751D01*
X193192Y147029D01*
X192976Y146224D01*
Y145390D01*
X193192Y144585D01*
X193609Y143863D01*
X194198Y143274D01*
X194920Y142858D01*
X195725Y142642D01*
X196558D01*
X197363Y142858D01*
X198085Y143274D01*
X198675Y143863D01*
X199091Y144585D01*
X199307Y145390D01*
Y146224D01*
X199091Y147029D01*
X198675Y147751D01*
X198085Y148340D01*
X197363Y148757D01*
X196558Y148972D01*
D02*
G37*
G36*
X245538Y145587D02*
X245500D01*
Y141996D01*
X249091D01*
Y142035D01*
X248812Y143075D01*
X248273Y144008D01*
X247512Y144769D01*
X246579Y145308D01*
X245538Y145587D01*
D02*
G37*
G36*
X295538D02*
X295500D01*
Y141996D01*
X299091D01*
Y142035D01*
X298812Y143075D01*
X298273Y144008D01*
X297512Y144769D01*
X296579Y145308D01*
X295538Y145587D01*
D02*
G37*
G36*
X244500D02*
X244461D01*
X243421Y145308D01*
X242488Y144769D01*
X241727Y144008D01*
X241188Y143075D01*
X240910Y142035D01*
Y141996D01*
X244500D01*
Y145587D01*
D02*
G37*
G36*
X294500D02*
X294461D01*
X293421Y145308D01*
X292488Y144769D01*
X291727Y144008D01*
X291188Y143075D01*
X290910Y142035D01*
Y141996D01*
X294500D01*
Y145587D01*
D02*
G37*
G36*
X119527Y147173D02*
X118473D01*
X117456Y146901D01*
X116544Y146374D01*
X115799Y145629D01*
X115273Y144717D01*
X115000Y143700D01*
Y142647D01*
X115273Y141629D01*
X115799Y140717D01*
X116544Y139972D01*
X117456Y139446D01*
X118473Y139173D01*
X119527D01*
X120544Y139446D01*
X121456Y139972D01*
X122201Y140717D01*
X122727Y141629D01*
X123000Y142647D01*
Y143700D01*
X122727Y144717D01*
X122201Y145629D01*
X121456Y146374D01*
X120544Y146901D01*
X119527Y147173D01*
D02*
G37*
G36*
X109527D02*
X108473D01*
X107456Y146901D01*
X106544Y146374D01*
X105799Y145629D01*
X105273Y144717D01*
X105000Y143700D01*
Y142647D01*
X105273Y141629D01*
X105799Y140717D01*
X106544Y139972D01*
X107456Y139446D01*
X108473Y139173D01*
X109527D01*
X110544Y139446D01*
X111456Y139972D01*
X112201Y140717D01*
X112727Y141629D01*
X113000Y142647D01*
Y143700D01*
X112727Y144717D01*
X112201Y145629D01*
X111456Y146374D01*
X110544Y146901D01*
X109527Y147173D01*
D02*
G37*
G36*
X173913Y141689D02*
X170658D01*
Y138433D01*
X173913D01*
Y141689D01*
D02*
G37*
G36*
X169658D02*
X166402D01*
Y138433D01*
X169658D01*
Y141689D01*
D02*
G37*
G36*
X299091Y140996D02*
X295500D01*
Y137406D01*
X295538D01*
X296579Y137684D01*
X297512Y138223D01*
X298273Y138984D01*
X298812Y139917D01*
X299091Y140957D01*
Y140996D01*
D02*
G37*
G36*
X294500D02*
X290910D01*
Y140957D01*
X291188Y139917D01*
X291727Y138984D01*
X292488Y138223D01*
X293421Y137684D01*
X294461Y137406D01*
X294500D01*
Y140996D01*
D02*
G37*
G36*
X269091Y145587D02*
X260910D01*
Y137406D01*
X269091D01*
Y145587D01*
D02*
G37*
G36*
X249091Y140996D02*
X245500D01*
Y137406D01*
X245538D01*
X246579Y137684D01*
X247512Y138223D01*
X248273Y138984D01*
X248812Y139917D01*
X249091Y140957D01*
Y140996D01*
D02*
G37*
G36*
X244500D02*
X240910D01*
Y140957D01*
X241188Y139917D01*
X241727Y138984D01*
X242488Y138223D01*
X243421Y137684D01*
X244461Y137406D01*
X244500D01*
Y140996D01*
D02*
G37*
G36*
X225980Y178149D02*
X224020D01*
X223551Y178056D01*
X223154Y177791D01*
X222889Y177394D01*
X222795Y176925D01*
Y171618D01*
X222889Y171150D01*
X223154Y170752D01*
X223471Y170541D01*
Y145321D01*
X223421Y145308D01*
X222488Y144769D01*
X221727Y144008D01*
X221188Y143075D01*
X220910Y142035D01*
Y140957D01*
X221188Y139917D01*
X221727Y138984D01*
X222488Y138223D01*
X223421Y137684D01*
X224462Y137406D01*
X225538D01*
X226579Y137684D01*
X227512Y138223D01*
X228273Y138984D01*
X228812Y139917D01*
X229090Y140957D01*
Y142035D01*
X228812Y143075D01*
X228273Y144008D01*
X227512Y144769D01*
X226579Y145308D01*
X226529Y145321D01*
Y170541D01*
X226846Y170752D01*
X227111Y171150D01*
X227205Y171618D01*
Y176925D01*
X227111Y177394D01*
X226846Y177791D01*
X226449Y178056D01*
X225980Y178149D01*
D02*
G37*
G36*
X219091Y145587D02*
X210910D01*
Y137406D01*
X219091D01*
Y145587D01*
D02*
G37*
G36*
X173913Y137433D02*
X170658D01*
Y134177D01*
X173913D01*
Y137433D01*
D02*
G37*
G36*
X169658D02*
X166402D01*
Y134177D01*
X169658D01*
Y137433D01*
D02*
G37*
G36*
X123000Y137173D02*
X115000D01*
Y129173D01*
X123000D01*
Y137173D01*
D02*
G37*
G36*
X109527D02*
X108473D01*
X107456Y136901D01*
X106544Y136374D01*
X105799Y135629D01*
X105273Y134717D01*
X105000Y133700D01*
Y132647D01*
X105273Y131629D01*
X105799Y130717D01*
X106544Y129972D01*
X107456Y129446D01*
X108473Y129173D01*
X109527D01*
X110544Y129446D01*
X111456Y129972D01*
X112201Y130717D01*
X112727Y131629D01*
X113000Y132647D01*
Y133700D01*
X112727Y134717D01*
X112201Y135629D01*
X111456Y136374D01*
X110544Y136901D01*
X109527Y137173D01*
D02*
G37*
%LPD*%
D14*
X175000Y246453D02*
Y279272D01*
X184848Y245848D02*
X190000Y251000D01*
Y279272D01*
X275000Y246496D02*
Y279272D01*
X283960Y244960D02*
X290000Y251000D01*
Y279272D01*
X228000Y253496D02*
X235000Y246496D01*
X228000Y253496D02*
Y268000D01*
X225000Y246350D02*
Y266000D01*
X189154Y192500D02*
X191122D01*
X185325Y190325D02*
X186979D01*
X185000Y190000D02*
X185325Y190325D01*
X186979D02*
X189154Y192500D01*
X121000Y188000D02*
X141000Y208000D01*
X113827Y188000D02*
X121000D01*
X119002Y183173D02*
X140784Y204955D01*
X119000Y183173D02*
X119002D01*
X140784Y204955D02*
X145691D01*
X157000Y224030D02*
Y266031D01*
X155000Y222000D02*
Y222030D01*
X157000Y224030D01*
Y266031D02*
X162282Y271313D01*
X159000Y264000D02*
X161000Y266000D01*
X159000Y218000D02*
Y264000D01*
X123173Y163173D02*
X140021Y180021D01*
X160847D01*
X163327Y182500D01*
X119000Y163173D02*
X123173D01*
X123811Y243189D02*
X161000Y206000D01*
X216402D01*
X126000Y238000D02*
X160000Y204000D01*
X215573D01*
X119000Y243173D02*
X123796D01*
X137827Y223173D02*
X159000Y202000D01*
X198000D01*
X117000Y218000D02*
X140000D01*
X158000Y200000D02*
X196000D01*
X140000Y218000D02*
X158000Y200000D01*
X119000Y223173D02*
X137827D01*
X141500Y192500D02*
X168878D01*
X140500Y177500D02*
X168878D01*
X275000Y141496D02*
Y159000D01*
X240000Y147000D02*
Y174272D01*
X225000Y141141D02*
Y174272D01*
X113827Y178000D02*
X127000D01*
X141500Y192500D01*
X170000Y292000D02*
Y300728D01*
Y285000D02*
X175000Y290000D01*
X185000D01*
X190000Y295000D01*
X162313Y271313D02*
X165000Y274000D01*
X162282Y271313D02*
X162313D01*
X180000Y274000D02*
Y279272D01*
X109000Y183173D02*
X113827Y188000D01*
X216402Y206000D02*
X225000Y197402D01*
X215573Y204000D02*
X220000Y199573D01*
X196000Y200000D02*
X215000Y181000D01*
X198000Y202000D02*
X220000Y180000D01*
X109000Y253173D02*
X114000Y248173D01*
Y241809D02*
Y248173D01*
Y241809D02*
X117809Y238000D01*
X126000D01*
X114000Y221000D02*
Y238173D01*
X109000Y243173D02*
X114000Y238173D01*
Y221000D02*
X117000Y218000D01*
X220000Y195728D02*
Y199573D01*
X225000Y195728D02*
Y197402D01*
X215000Y174272D02*
Y181000D01*
Y190000D02*
Y195728D01*
X220040Y187960D02*
Y195688D01*
X221000Y187000D02*
X234000D01*
X220040Y187960D02*
X221000Y187000D01*
X225000Y190000D02*
Y195728D01*
X191122Y187500D02*
X196500D01*
X199807Y184193D01*
Y162807D02*
Y184193D01*
X189842Y152842D02*
X199807Y162807D01*
X265000Y300728D02*
Y307000D01*
X165000Y295000D02*
Y300728D01*
X107000Y328000D02*
X123000D01*
X237000Y321000D02*
X263000Y295000D01*
X123000Y328000D02*
X130000Y321000D01*
X237000D01*
X104000Y325000D02*
X107000Y328000D01*
X104000Y308173D02*
Y325000D01*
X236000Y318000D02*
X262000Y292000D01*
X175000Y318000D02*
X236000D01*
X175000Y300905D02*
Y318000D01*
X114173D02*
X175000D01*
X147000Y308000D02*
X170000Y285000D01*
X199000Y297000D02*
X228000Y268000D01*
X199000Y297000D02*
Y306000D01*
X195000Y296000D02*
Y300728D01*
X184960Y300688D02*
X185000Y300728D01*
X184960Y292960D02*
Y300688D01*
X190000Y295000D02*
Y300728D01*
X165000Y274000D02*
Y279272D01*
X185000D02*
Y285000D01*
X184000Y292000D02*
X184960Y292960D01*
X180000Y300728D02*
Y306000D01*
X170000Y292000D02*
X184000D01*
X175000Y295000D02*
Y300728D01*
X190000Y314000D02*
X190436D01*
X184000Y310000D02*
X195000D01*
X180000Y306000D02*
X184000Y310000D01*
X190000Y300728D02*
Y307000D01*
X190436Y314000D02*
X191436Y315000D01*
X170000Y279272D02*
Y285000D01*
X265000Y274000D02*
Y279272D01*
X263000Y295000D02*
X272000D01*
X191436Y315000D02*
X235000D01*
X195000Y310000D02*
X199000Y306000D01*
X277000Y292000D02*
X285000Y284000D01*
X268000Y289000D02*
X270000Y287000D01*
X285000Y279272D02*
Y284000D01*
X280000Y279272D02*
Y284000D01*
X275000Y289000D02*
X280000Y284000D01*
X261000Y289000D02*
X268000D01*
X280000Y274000D02*
Y279272D01*
X262000Y292000D02*
X277000D01*
X235000Y315000D02*
X261000Y289000D01*
X270000Y279272D02*
Y287000D01*
X195000Y296000D02*
X225000Y266000D01*
X104000Y308173D02*
X109000Y303173D01*
Y323173D02*
X114173Y318000D01*
X117809Y308000D02*
X147000D01*
X113500Y312309D02*
X117809Y308000D01*
X109864Y312309D02*
X113500D01*
X109000Y313173D02*
X109864Y312309D01*
X230000Y169000D02*
Y174272D01*
X215000Y169000D02*
Y174272D01*
X220000D02*
Y180000D01*
X240000Y190000D02*
Y195728D01*
X235000Y174272D02*
Y180000D01*
X234960Y187960D02*
Y195688D01*
X234000Y187000D02*
X234960Y187960D01*
X225000Y185000D02*
X235000D01*
X240000Y190000D01*
X220000Y180000D02*
X225000Y185000D01*
X121673Y158673D02*
X140500Y177500D01*
X113500Y158673D02*
X121673D01*
X109000Y173173D02*
X113827Y178000D01*
X278000Y148496D02*
X285000Y141496D01*
X278000Y148496D02*
Y159000D01*
X235000Y141496D02*
X240000Y146496D01*
X249000Y188000D02*
X278000Y159000D01*
X230000Y201000D02*
X234000Y205000D01*
X230000Y195728D02*
Y201000D01*
X245000Y189000D02*
Y195728D01*
Y189000D02*
X275000Y159000D01*
X234000Y205000D02*
X245000D01*
X249000Y201000D01*
Y188000D02*
Y201000D01*
X189842Y137933D02*
Y152842D01*
X185000Y182500D02*
X191122D01*
X180000Y177500D02*
X185000Y182500D01*
X164500Y187500D02*
X168878D01*
X163327Y182500D02*
Y186327D01*
X164500Y187500D01*
X163327Y182500D02*
X168878D01*
X180000Y137933D02*
Y177500D01*
X109000Y163173D02*
X113500Y158673D01*
D15*
X265000Y279272D02*
D03*
X270000D02*
D03*
X275000D02*
D03*
X280000D02*
D03*
X285000D02*
D03*
X290000D02*
D03*
X295000D02*
D03*
X265000Y300728D02*
D03*
X270000D02*
D03*
X275000D02*
D03*
X280000D02*
D03*
X285000D02*
D03*
X290000D02*
D03*
X295000D02*
D03*
X165000Y279272D02*
D03*
X170000D02*
D03*
X175000D02*
D03*
X180000D02*
D03*
X185000D02*
D03*
X190000D02*
D03*
X195000D02*
D03*
X165000Y300728D02*
D03*
X170000D02*
D03*
X175000D02*
D03*
X180000D02*
D03*
X185000D02*
D03*
X190000D02*
D03*
X195000D02*
D03*
X215000Y174272D02*
D03*
X220000D02*
D03*
X225000D02*
D03*
X230000D02*
D03*
X235000D02*
D03*
X240000D02*
D03*
X245000D02*
D03*
X215000Y195728D02*
D03*
X220000D02*
D03*
X225000D02*
D03*
X230000D02*
D03*
X235000D02*
D03*
X240000D02*
D03*
X245000D02*
D03*
D16*
X191122Y177500D02*
D03*
Y182500D02*
D03*
Y187500D02*
D03*
Y192500D02*
D03*
X168878Y177500D02*
D03*
Y182500D02*
D03*
Y187500D02*
D03*
Y192500D02*
D03*
D24*
X285000Y255000D02*
D03*
X185000D02*
D03*
X235000D02*
D03*
X285000Y150000D02*
D03*
X235000D02*
D03*
D25*
X295000Y246496D02*
D03*
X285000D02*
D03*
X275000D02*
D03*
X195000D02*
D03*
X185000D02*
D03*
X175000D02*
D03*
X245000D02*
D03*
X235000D02*
D03*
X225000D02*
D03*
X295000Y141496D02*
D03*
X285000D02*
D03*
X275000D02*
D03*
X245000D02*
D03*
X235000D02*
D03*
X225000D02*
D03*
D26*
X265000Y246496D02*
D03*
X165000D02*
D03*
X215000D02*
D03*
X265000Y141496D02*
D03*
X215000D02*
D03*
D27*
X196142Y145807D02*
D03*
D28*
X189842Y137933D02*
D03*
X180000D02*
D03*
D29*
X170158D02*
D03*
D31*
X280000Y205000D02*
D03*
D32*
Y185000D02*
D03*
D33*
X306913Y114000D02*
D03*
Y342347D02*
D03*
X114000D02*
D03*
Y114000D02*
D03*
D34*
X119000Y133173D02*
D03*
D35*
Y143173D02*
D03*
Y153173D02*
D03*
Y163173D02*
D03*
Y173173D02*
D03*
Y183173D02*
D03*
X109000Y133173D02*
D03*
Y143173D02*
D03*
Y153173D02*
D03*
Y163173D02*
D03*
Y173173D02*
D03*
Y183173D02*
D03*
X119000Y193173D02*
D03*
X109000D02*
D03*
X119000Y203173D02*
D03*
Y213173D02*
D03*
Y223173D02*
D03*
Y233173D02*
D03*
Y243173D02*
D03*
Y253173D02*
D03*
X109000Y203173D02*
D03*
Y213173D02*
D03*
Y223173D02*
D03*
Y233173D02*
D03*
Y243173D02*
D03*
Y253173D02*
D03*
X119000Y263173D02*
D03*
X109000D02*
D03*
X119000Y273173D02*
D03*
Y283173D02*
D03*
Y293173D02*
D03*
Y303173D02*
D03*
Y313173D02*
D03*
Y323173D02*
D03*
X109000Y273173D02*
D03*
Y283173D02*
D03*
Y293173D02*
D03*
Y303173D02*
D03*
Y313173D02*
D03*
Y323173D02*
D03*
D36*
X185000Y190000D02*
D03*
X265000Y178000D02*
D03*
X262000Y181000D02*
D03*
X259000Y184000D02*
D03*
X258000Y171000D02*
D03*
X255000Y174000D02*
D03*
X252000Y177000D02*
D03*
X141000Y208000D02*
D03*
X145691Y204955D02*
D03*
X155000Y222000D02*
D03*
X159000Y218000D02*
D03*
X151485Y202485D02*
D03*
X139485Y214485D02*
D03*
X148015Y223015D02*
D03*
X160015Y211015D02*
D03*
X215000Y169000D02*
D03*
X230000D02*
D03*
X161000Y266000D02*
D03*
X170000Y292000D02*
D03*
X165000Y274000D02*
D03*
X180000D02*
D03*
X215000Y190000D02*
D03*
X225000D02*
D03*
X265000Y307000D02*
D03*
X165000Y295000D02*
D03*
X272000D02*
D03*
X280000Y274000D02*
D03*
X265000D02*
D03*
X275000Y289000D02*
D03*
X185000Y285000D02*
D03*
X175000Y295000D02*
D03*
X190000Y307000D02*
D03*
Y314000D02*
D03*
X235000Y180000D02*
D03*
M02*
