G04*
G04 #@! TF.GenerationSoftware,Altium Limited,Altium Designer,23.0.1 (38)*
G04*
G04 Layer_Physical_Order=1*
G04 Layer_Color=255*
%FSLAX25Y25*%
%MOIN*%
G70*
G04*
G04 #@! TF.SameCoordinates,F80D54C9-B755-4FCF-BFE6-68BB78994598*
G04*
G04*
G04 #@! TF.FilePolarity,Positive*
G04*
G01*
G75*
G36*
X107807Y256095D02*
X473555Y256095D01*
X473569Y256098D01*
X474873Y255969D01*
X476141Y255585D01*
X477309Y254960D01*
X478333Y254120D01*
X479173Y253096D01*
X479797Y251928D01*
X480182Y250661D01*
X480310Y249356D01*
X480308Y249342D01*
Y218968D01*
X477689D01*
X477260Y218883D01*
X476896Y218639D01*
X476653Y218276D01*
X476567Y217846D01*
Y139106D01*
X476653Y138677D01*
X476896Y138313D01*
X477260Y138070D01*
X477689Y137985D01*
X480308D01*
Y107610D01*
X480310Y107597D01*
X480182Y106292D01*
X479797Y105025D01*
X479173Y103857D01*
X478333Y102833D01*
X477309Y101992D01*
X476141Y101368D01*
X474873Y100984D01*
X473569Y100855D01*
X473555Y100858D01*
X392488D01*
Y137100D01*
Y196155D01*
X392410Y196545D01*
X392189Y196876D01*
X391859Y197097D01*
X391468Y197175D01*
X339106D01*
X338716Y197097D01*
X338385Y196876D01*
X338164Y196545D01*
X338087Y196155D01*
Y137100D01*
Y100858D01*
X321622D01*
Y137100D01*
Y196155D01*
X321544Y196545D01*
X321323Y196876D01*
X320992Y197097D01*
X320602Y197175D01*
X268240D01*
X267850Y197097D01*
X267519Y196876D01*
X267298Y196545D01*
X267220Y196155D01*
Y137100D01*
Y100858D01*
X253512D01*
Y137100D01*
Y191037D01*
X253434Y191427D01*
X253213Y191758D01*
X252882Y191979D01*
X252492Y192057D01*
X189106D01*
X188716Y191979D01*
X188385Y191758D01*
X188164Y191427D01*
X188087Y191037D01*
Y137100D01*
Y100858D01*
X107807D01*
X107793Y100855D01*
X106489Y100984D01*
X105221Y101368D01*
X104053Y101992D01*
X103030Y102833D01*
X102189Y103857D01*
X101565Y105025D01*
X101180Y106292D01*
X101052Y107597D01*
X101055Y107610D01*
Y137985D01*
X103673D01*
X104102Y138070D01*
X104466Y138313D01*
X104709Y138677D01*
X104795Y139106D01*
Y217846D01*
X104709Y218276D01*
X104466Y218639D01*
X104102Y218883D01*
X103673Y218968D01*
X101055D01*
Y249342D01*
X101052Y249356D01*
X101180Y250661D01*
X101565Y251928D01*
X102189Y253096D01*
X103030Y254120D01*
X104053Y254960D01*
X105221Y255585D01*
X106489Y255969D01*
X107793Y256098D01*
X107807Y256095D01*
D02*
G37*
%LPC*%
G36*
X114500Y253487D02*
X112774Y253351D01*
X111090Y252947D01*
X109491Y252284D01*
X108014Y251380D01*
X106698Y250255D01*
X105573Y248938D01*
X104668Y247462D01*
X104006Y245863D01*
X103602Y244179D01*
X103466Y242453D01*
X103602Y240727D01*
X104006Y239043D01*
X104668Y237443D01*
X105573Y235967D01*
X106698Y234650D01*
X108014Y233526D01*
X109491Y232621D01*
X111090Y231959D01*
X112774Y231555D01*
X114500Y231419D01*
X116226Y231555D01*
X117910Y231959D01*
X119509Y232621D01*
X120986Y233526D01*
X122302Y234650D01*
X123427Y235967D01*
X124331Y237443D01*
X124994Y239043D01*
X125398Y240727D01*
X125534Y242453D01*
X125398Y244179D01*
X124994Y245863D01*
X124331Y247462D01*
X123427Y248938D01*
X122302Y250255D01*
X120986Y251380D01*
X119509Y252284D01*
X117910Y252947D01*
X116226Y253351D01*
X114500Y253487D01*
D02*
G37*
G36*
X466862Y253487D02*
X465136Y253351D01*
X463452Y252947D01*
X461853Y252284D01*
X460377Y251380D01*
X459060Y250255D01*
X457935Y248938D01*
X457031Y247462D01*
X456368Y245863D01*
X455964Y244179D01*
X455828Y242453D01*
X455964Y240727D01*
X456368Y239043D01*
X457031Y237443D01*
X457935Y235967D01*
X459060Y234650D01*
X460377Y233526D01*
X461853Y232621D01*
X463452Y231959D01*
X465136Y231555D01*
X466862Y231419D01*
X468588Y231555D01*
X470272Y231959D01*
X471872Y232621D01*
X473348Y233526D01*
X474664Y234650D01*
X475789Y235967D01*
X476694Y237443D01*
X477356Y239043D01*
X477761Y240727D01*
X477896Y242453D01*
X477761Y244179D01*
X477356Y245863D01*
X476694Y247462D01*
X475789Y248938D01*
X474664Y250255D01*
X473348Y251380D01*
X471872Y252284D01*
X470272Y252947D01*
X468588Y253351D01*
X466862Y253487D01*
D02*
G37*
G36*
X114500Y125534D02*
X112774Y125398D01*
X111090Y124994D01*
X109491Y124331D01*
X108014Y123427D01*
X106698Y122302D01*
X105573Y120986D01*
X104668Y119509D01*
X104006Y117910D01*
X103602Y116226D01*
X103466Y114500D01*
X103602Y112774D01*
X104006Y111090D01*
X104668Y109491D01*
X105573Y108014D01*
X106698Y106698D01*
X108014Y105573D01*
X109491Y104668D01*
X111090Y104006D01*
X112774Y103602D01*
X114500Y103466D01*
X116226Y103602D01*
X117910Y104006D01*
X119509Y104668D01*
X120986Y105573D01*
X122302Y106698D01*
X123427Y108014D01*
X124331Y109491D01*
X124994Y111090D01*
X125398Y112774D01*
X125534Y114500D01*
X125398Y116226D01*
X124994Y117910D01*
X124331Y119509D01*
X123427Y120986D01*
X122302Y122302D01*
X120986Y123427D01*
X119509Y124331D01*
X117910Y124994D01*
X116226Y125398D01*
X114500Y125534D01*
D02*
G37*
G36*
X466862Y125534D02*
X465136Y125398D01*
X463452Y124994D01*
X461853Y124331D01*
X460377Y123427D01*
X459060Y122302D01*
X457935Y120986D01*
X457031Y119509D01*
X456368Y117910D01*
X455964Y116226D01*
X455828Y114500D01*
X455964Y112774D01*
X456368Y111090D01*
X457031Y109491D01*
X457935Y108014D01*
X459060Y106698D01*
X460377Y105573D01*
X461853Y104668D01*
X463452Y104006D01*
X465136Y103602D01*
X466862Y103466D01*
X468588Y103602D01*
X470272Y104006D01*
X471872Y104668D01*
X473348Y105573D01*
X474664Y106698D01*
X475789Y108014D01*
X476694Y109491D01*
X477356Y111090D01*
X477761Y112774D01*
X477896Y114500D01*
X477761Y116226D01*
X477356Y117910D01*
X476694Y119509D01*
X475789Y120986D01*
X474664Y122302D01*
X473348Y123427D01*
X471872Y124331D01*
X470272Y124994D01*
X468588Y125398D01*
X466862Y125534D01*
D02*
G37*
%LPD*%
M02*
