G04*
G04 #@! TF.GenerationSoftware,Altium Limited,Altium Designer,23.0.1 (38)*
G04*
G04 Layer_Color=16711935*
%FSLAX25Y25*%
%MOIN*%
G70*
G04*
G04 #@! TF.SameCoordinates,F80D54C9-B755-4FCF-BFE6-68BB78994598*
G04*
G04*
G04 #@! TF.FilePolarity,Positive*
G04*
G01*
G75*
%ADD13C,0.00200*%
D13*
X107807Y257217D02*
X473555Y257217D01*
X107032Y257217D02*
X107807D01*
X105510Y256914D02*
X107032Y257217D01*
X104077Y256320D02*
X105510Y256914D01*
X102788Y255459D02*
X104077Y256320D01*
X101691Y254362D02*
X102788Y255459D01*
X100829Y253072D02*
X101691Y254362D01*
X100236Y251639D02*
X100829Y253072D01*
X99933Y250118D02*
X100236Y251639D01*
X99933Y249342D02*
Y250118D01*
Y217846D02*
Y249342D01*
Y217846D02*
X103673D01*
Y139106D02*
Y217846D01*
X99933Y139106D02*
X103673D01*
X99933Y107610D02*
Y139106D01*
Y106835D02*
Y107610D01*
Y106835D02*
X100236Y105314D01*
X100829Y103881D01*
X101691Y102591D01*
X102788Y101494D01*
X104077Y100632D01*
X105510Y100039D01*
X107032Y99736D01*
X189106D01*
Y137100D01*
Y191037D01*
X252492D01*
Y137100D02*
Y191037D01*
Y99736D02*
Y137100D01*
Y99736D02*
X268240D01*
Y137100D01*
Y196155D01*
X320602D01*
Y137100D02*
Y196155D01*
Y99736D02*
Y137100D01*
Y99736D02*
X339106D01*
Y137100D01*
Y196155D01*
X391468D01*
Y137100D02*
Y196155D01*
Y99736D02*
Y137100D01*
Y99736D02*
X474331D01*
X475852Y100039D01*
X477285Y100632D01*
X478575Y101494D01*
X479671Y102591D01*
X480533Y103881D01*
X481126Y105314D01*
X481429Y106835D01*
Y107610D01*
Y139106D01*
X477689D02*
X481429D01*
X477689D02*
Y217846D01*
X481429D01*
Y249342D01*
Y250118D01*
X481126Y251639D02*
X481429Y250118D01*
X480533Y253072D02*
X481126Y251639D01*
X479671Y254362D02*
X480533Y253072D01*
X478575Y255459D02*
X479671Y254362D01*
X477285Y256320D02*
X478575Y255459D01*
X475852Y256914D02*
X477285Y256320D01*
X474331Y257217D02*
X475852Y256914D01*
X473555Y257217D02*
X474331D01*
M02*
