G04*
G04 #@! TF.GenerationSoftware,Altium Limited,Altium Designer,23.0.1 (38)*
G04*
G04 Layer_Color=16711935*
%FSLAX25Y25*%
%MOIN*%
G70*
G04*
G04 #@! TF.SameCoordinates,98C9FFAE-3615-4BD8-9C5D-4E3436802419*
G04*
G04*
G04 #@! TF.FilePolarity,Negative*
G04*
G01*
G75*
%ADD13C,0.25210*%
%ADD14R,0.06800X0.06800*%
%ADD15C,0.06800*%
D13*
X278346Y43307D02*
D03*
Y271654D02*
D03*
X85433D02*
D03*
Y43307D02*
D03*
D14*
X90433Y62480D02*
D03*
D15*
Y72480D02*
D03*
Y82480D02*
D03*
Y92480D02*
D03*
Y102480D02*
D03*
Y112480D02*
D03*
X80433Y62480D02*
D03*
Y72480D02*
D03*
Y82480D02*
D03*
Y92480D02*
D03*
Y102480D02*
D03*
Y112480D02*
D03*
X90433Y122480D02*
D03*
X80433D02*
D03*
X90433Y132480D02*
D03*
Y142480D02*
D03*
Y152480D02*
D03*
Y162480D02*
D03*
Y172480D02*
D03*
Y182480D02*
D03*
X80433Y132480D02*
D03*
Y142480D02*
D03*
Y152480D02*
D03*
Y162480D02*
D03*
Y172480D02*
D03*
Y182480D02*
D03*
X90433Y192480D02*
D03*
X80433D02*
D03*
X90433Y202480D02*
D03*
Y212480D02*
D03*
Y222480D02*
D03*
Y232480D02*
D03*
Y242480D02*
D03*
Y252480D02*
D03*
X80433Y202480D02*
D03*
Y212480D02*
D03*
Y222480D02*
D03*
Y232480D02*
D03*
Y242480D02*
D03*
Y252480D02*
D03*
M02*
