G04*
G04 #@! TF.GenerationSoftware,Altium Limited,Altium Designer,23.0.1 (38)*
G04*
G04 Layer_Physical_Order=2*
G04 Layer_Color=16711680*
%FSLAX25Y25*%
%MOIN*%
G70*
G04*
G04 #@! TF.SameCoordinates,FEFC64D0-FB10-4D50-9D40-DAED1BB74A73*
G04*
G04*
G04 #@! TF.FilePolarity,Positive*
G04*
G01*
G75*
G36*
X107807Y256095D02*
X473555Y256095D01*
X473569Y256098D01*
X474873Y255969D01*
X476141Y255585D01*
X477309Y254960D01*
X478333Y254120D01*
X479173Y253096D01*
X479797Y251928D01*
X480182Y250661D01*
X480310Y249356D01*
X480308Y249342D01*
Y218968D01*
X477689D01*
X477260Y218883D01*
X476896Y218639D01*
X476653Y218276D01*
X476567Y217846D01*
Y139106D01*
X476653Y138677D01*
X476896Y138313D01*
X477260Y138070D01*
X477689Y137985D01*
X480308D01*
Y107610D01*
X480310Y107597D01*
X480182Y106292D01*
X479797Y105025D01*
X479173Y103857D01*
X478333Y102833D01*
X477309Y101992D01*
X476141Y101368D01*
X474873Y100984D01*
X473569Y100855D01*
X473555Y100858D01*
X392488D01*
Y137100D01*
Y196155D01*
X392410Y196545D01*
X392189Y196876D01*
X391859Y197097D01*
X391468Y197175D01*
X339106D01*
X338716Y197097D01*
X338385Y196876D01*
X338164Y196545D01*
X338087Y196155D01*
Y137100D01*
Y100858D01*
X321622D01*
Y137100D01*
Y196155D01*
X321544Y196545D01*
X321323Y196876D01*
X320992Y197097D01*
X320602Y197175D01*
X268240D01*
X267850Y197097D01*
X267519Y196876D01*
X267298Y196545D01*
X267220Y196155D01*
Y137100D01*
Y100858D01*
X253512D01*
Y137100D01*
Y191037D01*
X253434Y191427D01*
X253213Y191758D01*
X252882Y191979D01*
X252492Y192057D01*
X189106D01*
X188716Y191979D01*
X188385Y191758D01*
X188164Y191427D01*
X188087Y191037D01*
Y137100D01*
Y100858D01*
X107807D01*
X107793Y100855D01*
X106489Y100984D01*
X105221Y101368D01*
X104053Y101992D01*
X103030Y102833D01*
X102189Y103857D01*
X101565Y105025D01*
X101180Y106292D01*
X101052Y107597D01*
X101055Y107610D01*
Y137985D01*
X103673D01*
X104102Y138070D01*
X104466Y138313D01*
X104709Y138677D01*
X104795Y139106D01*
Y217846D01*
X104709Y218276D01*
X104466Y218639D01*
X104102Y218883D01*
X103673Y218968D01*
X101055D01*
Y249342D01*
X101052Y249356D01*
X101180Y250661D01*
X101565Y251928D01*
X102189Y253096D01*
X103030Y254120D01*
X104053Y254960D01*
X105221Y255585D01*
X106489Y255969D01*
X107793Y256098D01*
X107807Y256095D01*
D02*
G37*
%LPC*%
G36*
X115277Y250342D02*
X113723D01*
X112199Y250039D01*
X110763Y249445D01*
X109471Y248581D01*
X108372Y247482D01*
X107508Y246190D01*
X106913Y244754D01*
X106610Y243230D01*
Y241676D01*
X106913Y240151D01*
X107508Y238716D01*
X108372Y237423D01*
X109471Y236324D01*
X110763Y235461D01*
X112199Y234866D01*
X113723Y234563D01*
X115277D01*
X116801Y234866D01*
X118237Y235461D01*
X119529Y236324D01*
X120628Y237423D01*
X121492Y238716D01*
X122087Y240151D01*
X122390Y241676D01*
Y243230D01*
X122087Y244754D01*
X121492Y246190D01*
X120628Y247482D01*
X119529Y248581D01*
X118237Y249445D01*
X116801Y250039D01*
X115277Y250342D01*
D02*
G37*
G36*
X467639Y250342D02*
X466085D01*
X464561Y250039D01*
X463125Y249445D01*
X461833Y248581D01*
X460734Y247482D01*
X459870Y246190D01*
X459276Y244754D01*
X458972Y243230D01*
Y241676D01*
X459276Y240151D01*
X459870Y238716D01*
X460734Y237423D01*
X461833Y236324D01*
X463125Y235461D01*
X464561Y234866D01*
X466085Y234563D01*
X467639D01*
X469164Y234866D01*
X470599Y235461D01*
X471892Y236324D01*
X472991Y237423D01*
X473854Y238716D01*
X474449Y240151D01*
X474752Y241676D01*
Y243230D01*
X474449Y244754D01*
X473854Y246190D01*
X472991Y247482D01*
X471892Y248581D01*
X470599Y249445D01*
X469164Y250039D01*
X467639Y250342D01*
D02*
G37*
G36*
X115277Y122390D02*
X113723D01*
X112199Y122087D01*
X110763Y121492D01*
X109471Y120628D01*
X108372Y119529D01*
X107508Y118237D01*
X106913Y116801D01*
X106610Y115277D01*
Y113723D01*
X106913Y112199D01*
X107508Y110763D01*
X108372Y109471D01*
X109471Y108372D01*
X110763Y107508D01*
X112199Y106913D01*
X113723Y106610D01*
X115277D01*
X116801Y106913D01*
X118237Y107508D01*
X119529Y108372D01*
X120628Y109471D01*
X121492Y110763D01*
X122087Y112199D01*
X122390Y113723D01*
Y115277D01*
X122087Y116801D01*
X121492Y118237D01*
X120628Y119529D01*
X119529Y120628D01*
X118237Y121492D01*
X116801Y122087D01*
X115277Y122390D01*
D02*
G37*
G36*
X467639Y122390D02*
X466085D01*
X464561Y122087D01*
X463125Y121492D01*
X461833Y120628D01*
X460734Y119529D01*
X459870Y118237D01*
X459276Y116801D01*
X458972Y115277D01*
Y113723D01*
X459276Y112199D01*
X459870Y110763D01*
X460734Y109471D01*
X461833Y108372D01*
X463125Y107508D01*
X464561Y106913D01*
X466085Y106610D01*
X467639D01*
X469164Y106913D01*
X470599Y107508D01*
X471892Y108372D01*
X472991Y109471D01*
X473854Y110763D01*
X474449Y112199D01*
X474752Y113723D01*
Y115277D01*
X474449Y116801D01*
X473854Y118237D01*
X472991Y119529D01*
X471892Y120628D01*
X470599Y121492D01*
X469164Y122087D01*
X467639Y122390D01*
D02*
G37*
%LPD*%
M02*
