G04*
G04 #@! TF.GenerationSoftware,Altium Limited,Altium Designer,23.0.1 (38)*
G04*
G04 Layer_Color=16711935*
%FSLAX25Y25*%
%MOIN*%
G70*
G04*
G04 #@! TF.SameCoordinates,FEFC64D0-FB10-4D50-9D40-DAED1BB74A73*
G04*
G04*
G04 #@! TF.FilePolarity,Positive*
G04*
G01*
G75*
%ADD11C,0.00900*%
%ADD12C,0.00197*%
D11*
X481429Y249342D02*
G03*
X473555Y257217I-7874J0D01*
G01*
X473555Y99736D02*
G03*
X481429Y107610I0J7874D01*
G01*
X107807Y257217D02*
G03*
X99933Y249342I0J-7874D01*
G01*
X99933Y107610D02*
G03*
X107807Y99736I7874J0D01*
G01*
X481429Y217846D02*
Y249342D01*
X481429Y107610D02*
Y139106D01*
X477689Y217846D02*
X481429D01*
X477689Y139106D02*
X481429D01*
X477689D02*
Y217846D01*
X456035Y99736D02*
X473555D01*
X107807Y257217D02*
X473555Y257217D01*
X107807Y99736D02*
X456035D01*
X103673Y139106D02*
Y217846D01*
X99933D02*
X103673D01*
X99933Y139106D02*
X103673D01*
X99933Y217846D02*
Y249342D01*
X99933Y107610D02*
Y139106D01*
D12*
X180445Y137100D02*
X400917D01*
X180445Y130801D02*
X400917D01*
Y137100D01*
X180445Y130801D02*
Y137100D01*
M02*
