G04*
G04 #@! TF.GenerationSoftware,Altium Limited,Altium Designer,23.0.1 (38)*
G04*
G04 Layer_Color=255*
%FSLAX25Y25*%
%MOIN*%
G70*
G04*
G04 #@! TF.SameCoordinates,553BDD90-AE0F-47F2-8343-8C5094A07883*
G04*
G04*
G04 #@! TF.FilePolarity,Positive*
G04*
G01*
G75*
G04:AMPARAMS|DCode=15|XSize=23.62mil|YSize=57.09mil|CornerRadius=2.01mil|HoleSize=0mil|Usage=FLASHONLY|Rotation=180.000|XOffset=0mil|YOffset=0mil|HoleType=Round|Shape=RoundedRectangle|*
%AMROUNDEDRECTD15*
21,1,0.02362,0.05307,0,0,180.0*
21,1,0.01961,0.05709,0,0,180.0*
1,1,0.00402,-0.00980,0.02653*
1,1,0.00402,0.00980,0.02653*
1,1,0.00402,0.00980,-0.02653*
1,1,0.00402,-0.00980,-0.02653*
%
%ADD15ROUNDEDRECTD15*%
G04:AMPARAMS|DCode=16|XSize=25.59mil|YSize=64.96mil|CornerRadius=1.92mil|HoleSize=0mil|Usage=FLASHONLY|Rotation=90.000|XOffset=0mil|YOffset=0mil|HoleType=Round|Shape=RoundedRectangle|*
%AMROUNDEDRECTD16*
21,1,0.02559,0.06112,0,0,90.0*
21,1,0.02175,0.06496,0,0,90.0*
1,1,0.00384,0.03056,0.01088*
1,1,0.00384,0.03056,-0.01088*
1,1,0.00384,-0.03056,-0.01088*
1,1,0.00384,-0.03056,0.01088*
%
%ADD16ROUNDEDRECTD16*%
%ADD24C,0.04921*%
%ADD25C,0.06181*%
%ADD26R,0.06181X0.06181*%
%ADD27C,0.04331*%
%ADD28C,0.05512*%
%ADD29R,0.05512X0.05512*%
%ADD31C,0.07087*%
%ADD32R,0.07087X0.07087*%
%ADD33C,0.24410*%
%ADD34R,0.06000X0.06000*%
%ADD35C,0.06000*%
D15*
X265000Y279272D02*
D03*
X270000D02*
D03*
X275000D02*
D03*
X280000D02*
D03*
X285000D02*
D03*
X290000D02*
D03*
X295000D02*
D03*
X265000Y300728D02*
D03*
X270000D02*
D03*
X275000D02*
D03*
X280000D02*
D03*
X285000D02*
D03*
X290000D02*
D03*
X295000D02*
D03*
X165000Y279272D02*
D03*
X170000D02*
D03*
X175000D02*
D03*
X180000D02*
D03*
X185000D02*
D03*
X190000D02*
D03*
X195000D02*
D03*
X165000Y300728D02*
D03*
X170000D02*
D03*
X175000D02*
D03*
X180000D02*
D03*
X185000D02*
D03*
X190000D02*
D03*
X195000D02*
D03*
X215000Y174272D02*
D03*
X220000D02*
D03*
X225000D02*
D03*
X230000D02*
D03*
X235000D02*
D03*
X240000D02*
D03*
X245000D02*
D03*
X215000Y195728D02*
D03*
X220000D02*
D03*
X225000D02*
D03*
X230000D02*
D03*
X235000D02*
D03*
X240000D02*
D03*
X245000D02*
D03*
D16*
X191122Y177500D02*
D03*
Y182500D02*
D03*
Y187500D02*
D03*
Y192500D02*
D03*
X168878Y177500D02*
D03*
Y182500D02*
D03*
Y187500D02*
D03*
Y192500D02*
D03*
D24*
X285000Y255000D02*
D03*
X185000D02*
D03*
X235000D02*
D03*
X285000Y150000D02*
D03*
X235000D02*
D03*
D25*
X295000Y246496D02*
D03*
X285000D02*
D03*
X275000D02*
D03*
X195000D02*
D03*
X185000D02*
D03*
X175000D02*
D03*
X245000D02*
D03*
X235000D02*
D03*
X225000D02*
D03*
X295000Y141496D02*
D03*
X285000D02*
D03*
X275000D02*
D03*
X245000D02*
D03*
X235000D02*
D03*
X225000D02*
D03*
D26*
X265000Y246496D02*
D03*
X165000D02*
D03*
X215000D02*
D03*
X265000Y141496D02*
D03*
X215000D02*
D03*
D27*
X196142Y145807D02*
D03*
D28*
X189842Y137933D02*
D03*
X180000D02*
D03*
D29*
X170158D02*
D03*
D31*
X280000Y205000D02*
D03*
D32*
Y185000D02*
D03*
D33*
X306913Y114000D02*
D03*
Y342347D02*
D03*
X114000D02*
D03*
Y114000D02*
D03*
D34*
X119000Y133173D02*
D03*
D35*
Y143173D02*
D03*
Y153173D02*
D03*
Y163173D02*
D03*
Y173173D02*
D03*
Y183173D02*
D03*
X109000Y133173D02*
D03*
Y143173D02*
D03*
Y153173D02*
D03*
Y163173D02*
D03*
Y173173D02*
D03*
Y183173D02*
D03*
X119000Y193173D02*
D03*
X109000D02*
D03*
X119000Y203173D02*
D03*
Y213173D02*
D03*
Y223173D02*
D03*
Y233173D02*
D03*
Y243173D02*
D03*
Y253173D02*
D03*
X109000Y203173D02*
D03*
Y213173D02*
D03*
Y223173D02*
D03*
Y233173D02*
D03*
Y243173D02*
D03*
Y253173D02*
D03*
X119000Y263173D02*
D03*
X109000D02*
D03*
X119000Y273173D02*
D03*
Y283173D02*
D03*
Y293173D02*
D03*
Y303173D02*
D03*
Y313173D02*
D03*
Y323173D02*
D03*
X109000Y273173D02*
D03*
Y283173D02*
D03*
Y293173D02*
D03*
Y303173D02*
D03*
Y313173D02*
D03*
Y323173D02*
D03*
M02*
