G04*
G04 #@! TF.GenerationSoftware,Altium Limited,Altium Designer,23.0.1 (38)*
G04*
G04 Layer_Color=65535*
%FSLAX25Y25*%
%MOIN*%
G70*
G04*
G04 #@! TF.SameCoordinates,553BDD90-AE0F-47F2-8343-8C5094A07883*
G04*
G04*
G04 #@! TF.FilePolarity,Positive*
G04*
G01*
G75*
%ADD10C,0.00984*%
%ADD11C,0.02362*%
%ADD12C,0.00787*%
%ADD13C,0.00500*%
%ADD14C,0.01000*%
D10*
X262146Y279272D02*
G03*
X262146Y279272I-492J0D01*
G01*
X257658Y246496D02*
G03*
X257658Y246496I-492J0D01*
G01*
X159134Y137933D02*
G03*
X159134Y137933I-492J0D01*
G01*
X169370Y195945D02*
G03*
X169370Y195945I-492J0D01*
G01*
X157658Y246496D02*
G03*
X157658Y246496I-492J0D01*
G01*
X207658D02*
G03*
X207658Y246496I-492J0D01*
G01*
X162146Y279272D02*
G03*
X162146Y279272I-492J0D01*
G01*
X257658Y141496D02*
G03*
X257658Y141496I-492J0D01*
G01*
X207658D02*
G03*
X207658Y141496I-492J0D01*
G01*
X212146Y174272D02*
G03*
X212146Y174272I-492J0D01*
G01*
D11*
X267795Y287638D02*
G03*
X267795Y287638I-1181J0D01*
G01*
X178819Y190905D02*
G03*
X178819Y190905I-1181J0D01*
G01*
X167795Y287638D02*
G03*
X167795Y287638I-1181J0D01*
G01*
X217795Y182638D02*
G03*
X217795Y182638I-1181J0D01*
G01*
D12*
X120299Y96677D02*
G03*
X120299Y96677I-394J0D01*
G01*
X264056Y175000D02*
Y215000D01*
X295945Y175000D02*
Y215000D01*
X264056Y175000D02*
X295945D01*
X264056Y215000D02*
X295945D01*
X262776Y283701D02*
X297224D01*
X262776Y296299D02*
X297224D01*
X262776Y283701D02*
Y296299D01*
X297224Y283701D02*
Y296299D01*
X300472Y233110D02*
Y256890D01*
X259528D02*
X281063D01*
X288937D02*
X300472D01*
X259528Y233110D02*
Y256890D01*
Y233110D02*
X300472D01*
X160512Y128681D02*
Y151319D01*
Y128681D02*
X199488D01*
Y151319D01*
X160512D02*
X199488D01*
X173701Y175157D02*
X186299D01*
X173701Y194843D02*
X186299D01*
Y175157D02*
Y194843D01*
X173701Y175157D02*
Y194843D01*
X200472Y233110D02*
Y256890D01*
X159528D02*
X181063D01*
X188937D02*
X200472D01*
X159528Y233110D02*
Y256890D01*
Y233110D02*
X200472D01*
X250472D02*
Y256890D01*
X209528D02*
X231063D01*
X238937D02*
X250472D01*
X209528Y233110D02*
Y256890D01*
Y233110D02*
X250472D01*
X162776Y283701D02*
X197224D01*
X162776Y296299D02*
X197224D01*
X162776Y283701D02*
Y296299D01*
X197224Y283701D02*
Y296299D01*
X300472Y128110D02*
Y151890D01*
X259528D02*
X281063D01*
X288937D02*
X300472D01*
X259528Y128110D02*
Y151890D01*
Y128110D02*
X300472D01*
X250472D02*
Y151890D01*
X209528D02*
X231063D01*
X238937D02*
X250472D01*
X209528Y128110D02*
Y151890D01*
Y128110D02*
X250472D01*
X212776Y178701D02*
X247224D01*
X212776Y191299D02*
X247224D01*
X212776Y178701D02*
Y191299D01*
X247224Y178701D02*
Y191299D01*
D13*
X308882Y100221D02*
G03*
X320693Y112031I0J11811D01*
G01*
Y423055D02*
G03*
X308882Y434866I-11811J0D01*
G01*
X112031D02*
G03*
X100221Y423055I0J-11811D01*
G01*
Y112031D02*
G03*
X112031Y100221I11811J0D01*
G01*
X308882D01*
X320693Y112031D02*
Y423055D01*
X112031Y434866D02*
X308882D01*
X100221Y112031D02*
Y423055D01*
D14*
X264904Y262332D02*
Y259000D01*
X267403D01*
X266570Y260666D01*
Y261499D01*
X267403Y262332D01*
X269069D01*
X269902Y261499D01*
Y259833D01*
X269069Y259000D01*
X264904Y263998D02*
X268236D01*
X269902Y265665D01*
X268236Y267331D01*
X264904D01*
X273302Y259000D02*
X278300D01*
Y261499D01*
X277467Y262332D01*
X274135D01*
X273302Y261499D01*
Y259000D01*
X282533Y262332D02*
X281700Y261499D01*
Y259833D01*
X282533Y259000D01*
X285865D01*
X286698Y259833D01*
Y261499D01*
X285865Y262332D01*
X290931D02*
X290098Y261499D01*
Y259833D01*
X290931Y259000D01*
X294263D01*
X295096Y259833D01*
Y261499D01*
X294263Y262332D01*
X292597D01*
Y260666D01*
X295096Y263998D02*
X290098D01*
X295096Y267331D01*
X290098D01*
Y268997D02*
X295096D01*
Y271496D01*
X294263Y272329D01*
X290931D01*
X290098Y271496D01*
Y268997D01*
X161000Y347796D02*
Y352795D01*
X163499D01*
X164332Y351961D01*
Y350295D01*
X163499Y349462D01*
X161000D01*
X162666D02*
X164332Y347796D01*
X166831Y351128D02*
X168498D01*
X169331Y350295D01*
Y347796D01*
X166831D01*
X165998Y348629D01*
X166831Y349462D01*
X169331D01*
X170997Y347796D02*
X173496D01*
X174329Y348629D01*
X173496Y349462D01*
X171830D01*
X170997Y350295D01*
X171830Y351128D01*
X174329D01*
X175995Y347796D02*
Y352795D01*
X178494D01*
X179327Y351961D01*
Y350295D01*
X178494Y349462D01*
X175995D01*
X180993Y347796D02*
X182660D01*
X181827D01*
Y351128D01*
X180993D01*
X193490Y351961D02*
X192656Y352795D01*
X190990D01*
X190157Y351961D01*
Y351128D01*
X190990Y350295D01*
X192656D01*
X193490Y349462D01*
Y348629D01*
X192656Y347796D01*
X190990D01*
X190157Y348629D01*
X195156Y347796D02*
Y352795D01*
X197655D01*
X198488Y351961D01*
Y350295D01*
X197655Y349462D01*
X195156D01*
X200154Y352795D02*
X201820D01*
X200987D01*
Y347796D01*
X200154D01*
X201820D01*
X209318Y352795D02*
Y347796D01*
X212650D01*
X217648Y352795D02*
X214316D01*
Y347796D01*
X217648D01*
X214316Y350295D02*
X215982D01*
X219314Y352795D02*
Y347796D01*
X221814D01*
X222647Y348629D01*
Y351961D01*
X221814Y352795D01*
X219314D01*
X229311D02*
X230977D01*
X230144D01*
Y347796D01*
X229311D01*
X230977D01*
X233476D02*
Y351128D01*
X235976D01*
X236809Y350295D01*
Y347796D01*
X239308Y351961D02*
Y351128D01*
X238475D01*
X240141D01*
X239308D01*
Y348629D01*
X240141Y347796D01*
X245139D02*
X243473D01*
X242640Y348629D01*
Y350295D01*
X243473Y351128D01*
X245139D01*
X245972Y350295D01*
Y349462D01*
X242640D01*
X247639Y351128D02*
Y347796D01*
Y349462D01*
X248472Y350295D01*
X249305Y351128D01*
X250138D01*
X253470Y347796D02*
Y351961D01*
Y350295D01*
X252637D01*
X254303D01*
X253470D01*
Y351961D01*
X254303Y352795D01*
X257635Y351128D02*
X259301D01*
X260135Y350295D01*
Y347796D01*
X257635D01*
X256802Y348629D01*
X257635Y349462D01*
X260135D01*
X265133Y351128D02*
X262634D01*
X261801Y350295D01*
Y348629D01*
X262634Y347796D01*
X265133D01*
X269298D02*
X267632D01*
X266799Y348629D01*
Y350295D01*
X267632Y351128D01*
X269298D01*
X270131Y350295D01*
Y349462D01*
X266799D01*
X161000Y344396D02*
Y339398D01*
X163499D01*
X164332Y340231D01*
Y341064D01*
X163499Y341897D01*
X161000D01*
X163499D01*
X164332Y342730D01*
Y343563D01*
X163499Y344396D01*
X161000D01*
X165998Y342730D02*
Y339398D01*
Y341064D01*
X166831Y341897D01*
X167665Y342730D01*
X168498D01*
X171830D02*
X173496D01*
X174329Y341897D01*
Y339398D01*
X171830D01*
X170997Y340231D01*
X171830Y341064D01*
X174329D01*
X175995Y339398D02*
Y342730D01*
X178494D01*
X179327Y341897D01*
Y339398D01*
X184326Y344396D02*
Y339398D01*
X181827D01*
X180993Y340231D01*
Y341897D01*
X181827Y342730D01*
X184326D01*
X186825Y339398D02*
X188491D01*
X189324Y340231D01*
Y341897D01*
X188491Y342730D01*
X186825D01*
X185992Y341897D01*
Y340231D01*
X186825Y339398D01*
X190990D02*
Y342730D01*
X193490D01*
X194323Y341897D01*
Y339398D01*
X204319Y344396D02*
X202653D01*
X203486D01*
Y340231D01*
X202653Y339398D01*
X201820D01*
X200987Y340231D01*
X206819Y339398D02*
X208485D01*
X209318Y340231D01*
Y341897D01*
X208485Y342730D01*
X206819D01*
X205985Y341897D01*
Y340231D01*
X206819Y339398D01*
X210984Y344396D02*
Y339398D01*
Y341897D01*
X211817Y342730D01*
X213483D01*
X214316Y341897D01*
Y339398D01*
X215982D02*
Y342730D01*
X218481D01*
X219314Y341897D01*
Y339398D01*
X161000Y334332D02*
X162666Y331000D01*
X164332Y334332D01*
X165998Y331000D02*
X167665D01*
X166831D01*
Y335998D01*
X165998Y335165D01*
X214904Y262332D02*
Y259000D01*
X217403D01*
X216570Y260666D01*
Y261499D01*
X217403Y262332D01*
X219069D01*
X219902Y261499D01*
Y259833D01*
X219069Y259000D01*
X214904Y263998D02*
X218236D01*
X219902Y265665D01*
X218236Y267331D01*
X214904D01*
X223302Y259000D02*
X228300D01*
Y261499D01*
X227467Y262332D01*
X224135D01*
X223302Y261499D01*
Y259000D01*
X232533Y262332D02*
X231700Y261499D01*
Y259833D01*
X232533Y259000D01*
X235865D01*
X236698Y259833D01*
Y261499D01*
X235865Y262332D01*
X240931D02*
X240098Y261499D01*
Y259833D01*
X240931Y259000D01*
X244263D01*
X245096Y259833D01*
Y261499D01*
X244263Y262332D01*
X242597D01*
Y260666D01*
X245096Y263998D02*
X240098D01*
X245096Y267331D01*
X240098D01*
Y268997D02*
X245096D01*
Y271496D01*
X244263Y272329D01*
X240931D01*
X240098Y271496D01*
Y268997D01*
X164904Y262332D02*
Y259000D01*
X167403D01*
X166570Y260666D01*
Y261499D01*
X167403Y262332D01*
X169069D01*
X169902Y261499D01*
Y259833D01*
X169069Y259000D01*
X164904Y263998D02*
X168236D01*
X169902Y265665D01*
X168236Y267331D01*
X164904D01*
X173302Y259000D02*
X178300D01*
Y261499D01*
X177467Y262332D01*
X174135D01*
X173302Y261499D01*
Y259000D01*
X182533Y262332D02*
X181700Y261499D01*
Y259833D01*
X182533Y259000D01*
X185865D01*
X186698Y259833D01*
Y261499D01*
X185865Y262332D01*
X190931D02*
X190098Y261499D01*
Y259833D01*
X190931Y259000D01*
X194263D01*
X195096Y259833D01*
Y261499D01*
X194263Y262332D01*
X192597D01*
Y260666D01*
X195096Y263998D02*
X190098D01*
X195096Y267331D01*
X190098D01*
Y268997D02*
X195096D01*
Y271496D01*
X194263Y272329D01*
X190931D01*
X190098Y271496D01*
Y268997D01*
X264904Y157332D02*
Y154000D01*
X267403D01*
X266570Y155666D01*
Y156499D01*
X267403Y157332D01*
X269069D01*
X269902Y156499D01*
Y154833D01*
X269069Y154000D01*
X264904Y158998D02*
X268236D01*
X269902Y160664D01*
X268236Y162331D01*
X264904D01*
X273302Y154000D02*
X278300D01*
Y156499D01*
X277467Y157332D01*
X274135D01*
X273302Y156499D01*
Y154000D01*
X282533Y157332D02*
X281700Y156499D01*
Y154833D01*
X282533Y154000D01*
X285865D01*
X286698Y154833D01*
Y156499D01*
X285865Y157332D01*
X290931D02*
X290098Y156499D01*
Y154833D01*
X290931Y154000D01*
X294263D01*
X295096Y154833D01*
Y156499D01*
X294263Y157332D01*
X292597D01*
Y155666D01*
X295096Y158998D02*
X290098D01*
X295096Y162331D01*
X290098D01*
Y163997D02*
X295096D01*
Y166496D01*
X294263Y167329D01*
X290931D01*
X290098Y166496D01*
Y163997D01*
X169936Y157332D02*
X169103Y156499D01*
Y154833D01*
X169936Y154000D01*
X173268D01*
X174101Y154833D01*
Y156499D01*
X173268Y157332D01*
X171602D01*
Y155666D01*
X174101Y158998D02*
X169103D01*
X174101Y162331D01*
X169103D01*
Y163997D02*
X174101D01*
Y166496D01*
X173268Y167329D01*
X169936D01*
X169103Y166496D01*
Y163997D01*
X182499Y154000D02*
X179167D01*
X177501Y155666D01*
X179167Y157332D01*
X182499D01*
X180000D01*
Y154000D01*
X185899D02*
X190897D01*
Y156499D01*
X190064Y157332D01*
X189231D01*
X188398Y156499D01*
Y154000D01*
Y156499D01*
X187565Y157332D01*
X186732D01*
X185899Y156499D01*
Y154000D01*
X214904Y157332D02*
Y154000D01*
X217403D01*
X216570Y155666D01*
Y156499D01*
X217403Y157332D01*
X219069D01*
X219902Y156499D01*
Y154833D01*
X219069Y154000D01*
X214904Y158998D02*
X218236D01*
X219902Y160664D01*
X218236Y162331D01*
X214904D01*
X223302Y154000D02*
X228300D01*
Y156499D01*
X227467Y157332D01*
X224135D01*
X223302Y156499D01*
Y154000D01*
X232533Y157332D02*
X231700Y156499D01*
Y154833D01*
X232533Y154000D01*
X235865D01*
X236698Y154833D01*
Y156499D01*
X235865Y157332D01*
X240931D02*
X240098Y156499D01*
Y154833D01*
X240931Y154000D01*
X244263D01*
X245096Y154833D01*
Y156499D01*
X244263Y157332D01*
X242597D01*
Y155666D01*
X245096Y158998D02*
X240098D01*
X245096Y162331D01*
X240098D01*
Y163997D02*
X245096D01*
Y166496D01*
X244263Y167329D01*
X240931D01*
X240098Y166496D01*
Y163997D01*
X300499Y177336D02*
Y180668D01*
X298833Y179002D02*
X302165D01*
X298000Y185666D02*
Y182334D01*
X300499D01*
X299666Y184000D01*
Y184833D01*
X300499Y185666D01*
X302165D01*
X302998Y184833D01*
Y183167D01*
X302165Y182334D01*
X298000Y187332D02*
X301332D01*
X302998Y188998D01*
X301332Y190665D01*
X298000D01*
X298833Y201668D02*
X298000Y200835D01*
Y199169D01*
X298833Y198336D01*
X302165D01*
X302998Y199169D01*
Y200835D01*
X302165Y201668D01*
X300499D01*
Y200002D01*
X302998Y203334D02*
X298000D01*
X302998Y206666D01*
X298000D01*
Y208332D02*
X302998D01*
Y210831D01*
X302165Y211665D01*
X298833D01*
X298000Y210831D01*
Y208332D01*
X256001Y196001D02*
Y194002D01*
Y195002D01*
X260999D01*
X261999Y194002D01*
Y193002D01*
X260999Y192003D01*
X256001Y201999D02*
Y198001D01*
X259000D01*
X258000Y200000D01*
Y201000D01*
X259000Y201999D01*
X260999D01*
X261999Y201000D01*
Y199000D01*
X260999Y198001D01*
X258000Y203999D02*
X261999Y205998D01*
X258000Y207997D01*
X261700Y313698D02*
Y308700D01*
X262700Y307700D01*
X264699D01*
X265699Y308700D01*
Y313698D01*
X270697Y307700D02*
Y313698D01*
X267698Y310699D01*
X271697D01*
X100100Y454798D02*
Y449800D01*
X101100Y448800D01*
X103099D01*
X104099Y449800D01*
Y454798D01*
X106098Y448800D02*
X108097D01*
X107098D01*
Y454798D01*
X106098Y453798D01*
X264199Y229198D02*
X262199D01*
X263199D01*
Y224200D01*
X262199Y223200D01*
X261200D01*
X260200Y224200D01*
X266198Y223200D02*
X268197D01*
X267198D01*
Y229198D01*
X266198Y228198D01*
X271196Y222200D02*
X275195D01*
X281193Y223200D02*
X277194D01*
X281193Y227199D01*
Y228198D01*
X280193Y229198D01*
X278194D01*
X277194Y228198D01*
X165002Y124000D02*
X163003D01*
X164003D01*
Y119002D01*
X163003Y118002D01*
X162003D01*
X161004Y119002D01*
X171000Y124000D02*
Y118002D01*
X168001D01*
X167002Y119002D01*
Y121001D01*
X168001Y122001D01*
X171000D01*
X173000Y118002D02*
Y122001D01*
X173999D01*
X174999Y121001D01*
Y118002D01*
Y121001D01*
X175999Y122001D01*
X176998Y121001D01*
Y118002D01*
X178998Y122001D02*
X182996Y118002D01*
X180997Y120001D01*
X182996Y122001D01*
X178998Y118002D01*
X164600Y205898D02*
Y200900D01*
X165600Y199900D01*
X167599D01*
X168599Y200900D01*
Y205898D01*
X174597D02*
X170598D01*
Y202899D01*
X172597Y203899D01*
X173597D01*
X174597Y202899D01*
Y200900D01*
X173597Y199900D01*
X171598D01*
X170598Y200900D01*
X164199Y229198D02*
X162199D01*
X163199D01*
Y224200D01*
X162199Y223200D01*
X161200D01*
X160200Y224200D01*
X166198Y223200D02*
X168197D01*
X167198D01*
Y229198D01*
X166198Y228198D01*
X171196Y222200D02*
X175195D01*
X177194Y228198D02*
X178194Y229198D01*
X180193D01*
X181193Y228198D01*
Y224200D01*
X180193Y223200D01*
X178194D01*
X177194Y224200D01*
Y228198D01*
X214199Y229198D02*
X212199D01*
X213199D01*
Y224200D01*
X212199Y223200D01*
X211200D01*
X210200Y224200D01*
X216198Y223200D02*
X218197D01*
X217198D01*
Y229198D01*
X216198Y228198D01*
X221196Y222200D02*
X225195D01*
X227194Y223200D02*
X229194D01*
X228194D01*
Y229198D01*
X227194Y228198D01*
X161700Y313698D02*
Y308700D01*
X162700Y307700D01*
X164699D01*
X165699Y308700D01*
Y313698D01*
X167698Y312698D02*
X168698Y313698D01*
X170697D01*
X171697Y312698D01*
Y311699D01*
X170697Y310699D01*
X169697D01*
X170697D01*
X171697Y309699D01*
Y308700D01*
X170697Y307700D01*
X168698D01*
X167698Y308700D01*
X264002Y124000D02*
X262003D01*
X263002D01*
Y119002D01*
X262003Y118002D01*
X261003D01*
X260003Y119002D01*
X266001Y123000D02*
X267001Y124000D01*
X269000D01*
X270000Y123000D01*
Y119002D01*
X269000Y118002D01*
X267001D01*
X266001Y119002D01*
Y123000D01*
X271999Y117002D02*
X275998D01*
X277997Y118002D02*
X279997D01*
X278997D01*
Y124000D01*
X277997Y123000D01*
X214002Y124000D02*
X212003D01*
X213003D01*
Y119002D01*
X212003Y118002D01*
X211003D01*
X210004Y119002D01*
X216002Y123000D02*
X217001Y124000D01*
X219001D01*
X220000Y123000D01*
Y119002D01*
X219001Y118002D01*
X217001D01*
X216002Y119002D01*
Y123000D01*
X222000Y117002D02*
X225998D01*
X227998Y123000D02*
X228997Y124000D01*
X230997D01*
X231996Y123000D01*
Y119002D01*
X230997Y118002D01*
X228997D01*
X227998Y119002D01*
Y123000D01*
X211700Y208698D02*
Y203700D01*
X212700Y202700D01*
X214699D01*
X215699Y203700D01*
Y208698D01*
X221697Y202700D02*
X217698D01*
X221697Y206699D01*
Y207698D01*
X220697Y208698D01*
X218698D01*
X217698Y207698D01*
M02*
