G04*
G04 #@! TF.GenerationSoftware,Altium Limited,Altium Designer,23.0.1 (38)*
G04*
G04 Layer_Color=16711935*
%FSLAX25Y25*%
%MOIN*%
G70*
G04*
G04 #@! TF.SameCoordinates,0491927B-E614-4B48-9FAC-6FEB24DC139D*
G04*
G04*
G04 #@! TF.FilePolarity,Positive*
G04*
G01*
G75*
%ADD19C,0.00200*%
D19*
X353780Y363779D02*
X354760Y363731D01*
X10000Y363779D02*
X353780D01*
X9020Y363731D02*
X10000Y363779D01*
X7097Y363349D02*
X9020Y363731D01*
X5286Y362599D02*
X7097Y363349D01*
X3656Y361510D02*
X5286Y362599D01*
X2270Y360123D02*
X3656Y361510D01*
X1181Y358493D02*
X2270Y360123D01*
X431Y356682D02*
X1181Y358493D01*
X48Y354760D02*
X431Y356682D01*
X0Y353780D02*
X48Y354760D01*
X0Y10000D02*
Y353780D01*
Y10000D02*
X48Y9020D01*
X431Y7097D01*
X1181Y5286D01*
X2270Y3656D01*
X3656Y2270D01*
X5286Y1181D01*
X7097Y431D01*
X9020Y48D01*
X10000Y0D01*
X353780D01*
X354760Y48D01*
X356682Y431D01*
X358493Y1181D01*
X360123Y2270D01*
X361510Y3656D01*
X362599Y5286D01*
X363349Y7097D01*
X363731Y9020D01*
X363779Y10000D01*
Y10000D01*
Y353780D01*
X363731Y354760D02*
X363779Y353780D01*
X363349Y356682D02*
X363731Y354760D01*
X362599Y358493D02*
X363349Y356682D01*
X361510Y360123D02*
X362599Y358493D01*
X360123Y361510D02*
X361510Y360123D01*
X358493Y362599D02*
X360123Y361510D01*
X356682Y363349D02*
X358493Y362599D01*
X354760Y363731D02*
X356682Y363349D01*
M02*
