G04*
G04 #@! TF.GenerationSoftware,Altium Limited,Altium Designer,23.0.1 (38)*
G04*
G04 Layer_Physical_Order=2*
G04 Layer_Color=16711680*
%FSLAX25Y25*%
%MOIN*%
G70*
G04*
G04 #@! TF.SameCoordinates,0491927B-E614-4B48-9FAC-6FEB24DC139D*
G04*
G04*
G04 #@! TF.FilePolarity,Positive*
G04*
G01*
G75*
%ADD16C,0.24410*%
%ADD17R,0.06000X0.06000*%
%ADD18C,0.06000*%
G36*
X354622Y362615D02*
X356355Y362270D01*
X357962Y361605D01*
X359408Y360638D01*
X360638Y359408D01*
X361605Y357962D01*
X362270Y356355D01*
X362615Y354622D01*
X362658Y353752D01*
Y10028D01*
X362615Y9157D01*
X362270Y7424D01*
X361605Y5817D01*
X360638Y4371D01*
X359408Y3141D01*
X357962Y2175D01*
X356355Y1509D01*
X354622Y1164D01*
X353752Y1122D01*
X10028D01*
X9157Y1164D01*
X7424Y1509D01*
X5817Y2175D01*
X4371Y3141D01*
X3141Y4371D01*
X2175Y5817D01*
X1509Y7424D01*
X1164Y9157D01*
X1122Y10028D01*
Y353752D01*
X1164Y354622D01*
X1509Y356355D01*
X2175Y357962D01*
X3141Y359408D01*
X4371Y360638D01*
X5817Y361605D01*
X7424Y362270D01*
X9157Y362615D01*
X10028Y362658D01*
X353752D01*
X354622Y362615D01*
D02*
G37*
%LPC*%
G36*
X279386Y284858D02*
X277307D01*
X275254Y284533D01*
X273278Y283891D01*
X271426Y282947D01*
X269744Y281726D01*
X268274Y280256D01*
X267053Y278574D01*
X266109Y276722D01*
X265467Y274746D01*
X265142Y272693D01*
Y270614D01*
X265467Y268561D01*
X266109Y266585D01*
X267053Y264733D01*
X268274Y263051D01*
X269744Y261581D01*
X271426Y260360D01*
X273278Y259416D01*
X275254Y258774D01*
X277307Y258449D01*
X279386D01*
X281439Y258774D01*
X283415Y259416D01*
X285267Y260360D01*
X286949Y261581D01*
X288418Y263051D01*
X289640Y264733D01*
X290584Y266585D01*
X291226Y268561D01*
X291551Y270614D01*
Y272693D01*
X291226Y274746D01*
X290584Y276722D01*
X289640Y278574D01*
X288418Y280256D01*
X286949Y281726D01*
X285267Y282947D01*
X283415Y283891D01*
X281439Y284533D01*
X279386Y284858D01*
D02*
G37*
G36*
X86472D02*
X84394D01*
X82341Y284533D01*
X80364Y283891D01*
X78512Y282947D01*
X76831Y281726D01*
X75361Y280256D01*
X74139Y278574D01*
X73196Y276722D01*
X72553Y274746D01*
X72228Y272693D01*
Y270614D01*
X72553Y268561D01*
X73196Y266585D01*
X74139Y264733D01*
X75361Y263051D01*
X76831Y261581D01*
X78512Y260360D01*
X80364Y259416D01*
X82341Y258774D01*
X84394Y258449D01*
X86472D01*
X88525Y258774D01*
X90502Y259416D01*
X92354Y260360D01*
X94035Y261581D01*
X95505Y263051D01*
X96727Y264733D01*
X97670Y266585D01*
X98313Y268561D01*
X98638Y270614D01*
Y272693D01*
X98313Y274746D01*
X97670Y276722D01*
X96727Y278574D01*
X95505Y280256D01*
X94035Y281726D01*
X92354Y282947D01*
X90502Y283891D01*
X88525Y284533D01*
X86472Y284858D01*
D02*
G37*
G36*
X90960Y256480D02*
X89907D01*
X88889Y256208D01*
X87977Y255681D01*
X87232Y254936D01*
X86706Y254024D01*
X86433Y253007D01*
Y251954D01*
X86706Y250936D01*
X87232Y250024D01*
X87977Y249279D01*
X88889Y248753D01*
X89907Y248480D01*
X90960D01*
X91977Y248753D01*
X92889Y249279D01*
X93634Y250024D01*
X94160Y250936D01*
X94433Y251954D01*
Y253007D01*
X94160Y254024D01*
X93634Y254936D01*
X92889Y255681D01*
X91977Y256208D01*
X90960Y256480D01*
D02*
G37*
G36*
X80960D02*
X79906D01*
X78889Y256208D01*
X77977Y255681D01*
X77232Y254936D01*
X76706Y254024D01*
X76433Y253007D01*
Y251954D01*
X76706Y250936D01*
X77232Y250024D01*
X77977Y249279D01*
X78889Y248753D01*
X79906Y248480D01*
X80960D01*
X81977Y248753D01*
X82889Y249279D01*
X83634Y250024D01*
X84161Y250936D01*
X84433Y251954D01*
Y253007D01*
X84161Y254024D01*
X83634Y254936D01*
X82889Y255681D01*
X81977Y256208D01*
X80960Y256480D01*
D02*
G37*
G36*
X90960Y246480D02*
X89907D01*
X88889Y246208D01*
X87977Y245681D01*
X87232Y244936D01*
X86706Y244024D01*
X86433Y243007D01*
Y241954D01*
X86706Y240936D01*
X87232Y240024D01*
X87977Y239280D01*
X88889Y238753D01*
X89907Y238480D01*
X90960D01*
X91977Y238753D01*
X92889Y239280D01*
X93634Y240024D01*
X94160Y240936D01*
X94433Y241954D01*
Y243007D01*
X94160Y244024D01*
X93634Y244936D01*
X92889Y245681D01*
X91977Y246208D01*
X90960Y246480D01*
D02*
G37*
G36*
X80960D02*
X79906D01*
X78889Y246208D01*
X77977Y245681D01*
X77232Y244936D01*
X76706Y244024D01*
X76433Y243007D01*
Y241954D01*
X76706Y240936D01*
X77232Y240024D01*
X77977Y239280D01*
X78889Y238753D01*
X79906Y238480D01*
X80960D01*
X81977Y238753D01*
X82889Y239280D01*
X83634Y240024D01*
X84161Y240936D01*
X84433Y241954D01*
Y243007D01*
X84161Y244024D01*
X83634Y244936D01*
X82889Y245681D01*
X81977Y246208D01*
X80960Y246480D01*
D02*
G37*
G36*
X90960Y236480D02*
X89907D01*
X88889Y236208D01*
X87977Y235681D01*
X87232Y234936D01*
X86706Y234024D01*
X86433Y233007D01*
Y231954D01*
X86706Y230936D01*
X87232Y230024D01*
X87977Y229279D01*
X88889Y228753D01*
X89907Y228480D01*
X90960D01*
X91977Y228753D01*
X92889Y229279D01*
X93634Y230024D01*
X94160Y230936D01*
X94433Y231954D01*
Y233007D01*
X94160Y234024D01*
X93634Y234936D01*
X92889Y235681D01*
X91977Y236208D01*
X90960Y236480D01*
D02*
G37*
G36*
X80960D02*
X79906D01*
X78889Y236208D01*
X77977Y235681D01*
X77232Y234936D01*
X76706Y234024D01*
X76433Y233007D01*
Y231954D01*
X76706Y230936D01*
X77232Y230024D01*
X77977Y229279D01*
X78889Y228753D01*
X79906Y228480D01*
X80960D01*
X81977Y228753D01*
X82889Y229279D01*
X83634Y230024D01*
X84161Y230936D01*
X84433Y231954D01*
Y233007D01*
X84161Y234024D01*
X83634Y234936D01*
X82889Y235681D01*
X81977Y236208D01*
X80960Y236480D01*
D02*
G37*
G36*
X90960Y226480D02*
X89907D01*
X88889Y226208D01*
X87977Y225681D01*
X87232Y224936D01*
X86706Y224024D01*
X86433Y223007D01*
Y221954D01*
X86706Y220936D01*
X87232Y220024D01*
X87977Y219280D01*
X88889Y218753D01*
X89907Y218480D01*
X90960D01*
X91977Y218753D01*
X92889Y219280D01*
X93634Y220024D01*
X94160Y220936D01*
X94433Y221954D01*
Y223007D01*
X94160Y224024D01*
X93634Y224936D01*
X92889Y225681D01*
X91977Y226208D01*
X90960Y226480D01*
D02*
G37*
G36*
X80960D02*
X79906D01*
X78889Y226208D01*
X77977Y225681D01*
X77232Y224936D01*
X76706Y224024D01*
X76433Y223007D01*
Y221954D01*
X76706Y220936D01*
X77232Y220024D01*
X77977Y219280D01*
X78889Y218753D01*
X79906Y218480D01*
X80960D01*
X81977Y218753D01*
X82889Y219280D01*
X83634Y220024D01*
X84161Y220936D01*
X84433Y221954D01*
Y223007D01*
X84161Y224024D01*
X83634Y224936D01*
X82889Y225681D01*
X81977Y226208D01*
X80960Y226480D01*
D02*
G37*
G36*
X90960Y216480D02*
X89907D01*
X88889Y216208D01*
X87977Y215681D01*
X87232Y214936D01*
X86706Y214024D01*
X86433Y213007D01*
Y211954D01*
X86706Y210936D01*
X87232Y210024D01*
X87977Y209279D01*
X88889Y208753D01*
X89907Y208480D01*
X90960D01*
X91977Y208753D01*
X92889Y209279D01*
X93634Y210024D01*
X94160Y210936D01*
X94433Y211954D01*
Y213007D01*
X94160Y214024D01*
X93634Y214936D01*
X92889Y215681D01*
X91977Y216208D01*
X90960Y216480D01*
D02*
G37*
G36*
X80960D02*
X79906D01*
X78889Y216208D01*
X77977Y215681D01*
X77232Y214936D01*
X76706Y214024D01*
X76433Y213007D01*
Y211954D01*
X76706Y210936D01*
X77232Y210024D01*
X77977Y209279D01*
X78889Y208753D01*
X79906Y208480D01*
X80960D01*
X81977Y208753D01*
X82889Y209279D01*
X83634Y210024D01*
X84161Y210936D01*
X84433Y211954D01*
Y213007D01*
X84161Y214024D01*
X83634Y214936D01*
X82889Y215681D01*
X81977Y216208D01*
X80960Y216480D01*
D02*
G37*
G36*
X90960Y206480D02*
X89907D01*
X88889Y206208D01*
X87977Y205681D01*
X87232Y204936D01*
X86706Y204024D01*
X86433Y203007D01*
Y201954D01*
X86706Y200936D01*
X87232Y200024D01*
X87977Y199279D01*
X88889Y198753D01*
X89907Y198480D01*
X90960D01*
X91977Y198753D01*
X92889Y199279D01*
X93634Y200024D01*
X94160Y200936D01*
X94433Y201954D01*
Y203007D01*
X94160Y204024D01*
X93634Y204936D01*
X92889Y205681D01*
X91977Y206208D01*
X90960Y206480D01*
D02*
G37*
G36*
X80960D02*
X79906D01*
X78889Y206208D01*
X77977Y205681D01*
X77232Y204936D01*
X76706Y204024D01*
X76433Y203007D01*
Y201954D01*
X76706Y200936D01*
X77232Y200024D01*
X77977Y199279D01*
X78889Y198753D01*
X79906Y198480D01*
X80960D01*
X81977Y198753D01*
X82889Y199279D01*
X83634Y200024D01*
X84161Y200936D01*
X84433Y201954D01*
Y203007D01*
X84161Y204024D01*
X83634Y204936D01*
X82889Y205681D01*
X81977Y206208D01*
X80960Y206480D01*
D02*
G37*
G36*
X90960Y196480D02*
X89907D01*
X88889Y196208D01*
X87977Y195681D01*
X87232Y194936D01*
X86706Y194024D01*
X86433Y193007D01*
Y191954D01*
X86706Y190936D01*
X87232Y190024D01*
X87977Y189279D01*
X88889Y188753D01*
X89907Y188480D01*
X90960D01*
X91977Y188753D01*
X92889Y189279D01*
X93634Y190024D01*
X94160Y190936D01*
X94433Y191954D01*
Y193007D01*
X94160Y194024D01*
X93634Y194936D01*
X92889Y195681D01*
X91977Y196208D01*
X90960Y196480D01*
D02*
G37*
G36*
X80960D02*
X79906D01*
X78889Y196208D01*
X77977Y195681D01*
X77232Y194936D01*
X76706Y194024D01*
X76433Y193007D01*
Y191954D01*
X76706Y190936D01*
X77232Y190024D01*
X77977Y189279D01*
X78889Y188753D01*
X79906Y188480D01*
X80960D01*
X81977Y188753D01*
X82889Y189279D01*
X83634Y190024D01*
X84161Y190936D01*
X84433Y191954D01*
Y193007D01*
X84161Y194024D01*
X83634Y194936D01*
X82889Y195681D01*
X81977Y196208D01*
X80960Y196480D01*
D02*
G37*
G36*
X90960Y186480D02*
X89907D01*
X88889Y186208D01*
X87977Y185681D01*
X87232Y184936D01*
X86706Y184024D01*
X86433Y183007D01*
Y181954D01*
X86706Y180936D01*
X87232Y180024D01*
X87977Y179279D01*
X88889Y178753D01*
X89907Y178480D01*
X90960D01*
X91977Y178753D01*
X92889Y179279D01*
X93634Y180024D01*
X94160Y180936D01*
X94433Y181954D01*
Y183007D01*
X94160Y184024D01*
X93634Y184936D01*
X92889Y185681D01*
X91977Y186208D01*
X90960Y186480D01*
D02*
G37*
G36*
X80960D02*
X79906D01*
X78889Y186208D01*
X77977Y185681D01*
X77232Y184936D01*
X76706Y184024D01*
X76433Y183007D01*
Y181954D01*
X76706Y180936D01*
X77232Y180024D01*
X77977Y179279D01*
X78889Y178753D01*
X79906Y178480D01*
X80960D01*
X81977Y178753D01*
X82889Y179279D01*
X83634Y180024D01*
X84161Y180936D01*
X84433Y181954D01*
Y183007D01*
X84161Y184024D01*
X83634Y184936D01*
X82889Y185681D01*
X81977Y186208D01*
X80960Y186480D01*
D02*
G37*
G36*
X90960Y176480D02*
X89907D01*
X88889Y176208D01*
X87977Y175681D01*
X87232Y174936D01*
X86706Y174024D01*
X86433Y173007D01*
Y171954D01*
X86706Y170936D01*
X87232Y170024D01*
X87977Y169280D01*
X88889Y168753D01*
X89907Y168480D01*
X90960D01*
X91977Y168753D01*
X92889Y169280D01*
X93634Y170024D01*
X94160Y170936D01*
X94433Y171954D01*
Y173007D01*
X94160Y174024D01*
X93634Y174936D01*
X92889Y175681D01*
X91977Y176208D01*
X90960Y176480D01*
D02*
G37*
G36*
X80960D02*
X79906D01*
X78889Y176208D01*
X77977Y175681D01*
X77232Y174936D01*
X76706Y174024D01*
X76433Y173007D01*
Y171954D01*
X76706Y170936D01*
X77232Y170024D01*
X77977Y169280D01*
X78889Y168753D01*
X79906Y168480D01*
X80960D01*
X81977Y168753D01*
X82889Y169280D01*
X83634Y170024D01*
X84161Y170936D01*
X84433Y171954D01*
Y173007D01*
X84161Y174024D01*
X83634Y174936D01*
X82889Y175681D01*
X81977Y176208D01*
X80960Y176480D01*
D02*
G37*
G36*
X90960Y166480D02*
X89907D01*
X88889Y166208D01*
X87977Y165681D01*
X87232Y164936D01*
X86706Y164024D01*
X86433Y163007D01*
Y161954D01*
X86706Y160936D01*
X87232Y160024D01*
X87977Y159280D01*
X88889Y158753D01*
X89907Y158480D01*
X90960D01*
X91977Y158753D01*
X92889Y159280D01*
X93634Y160024D01*
X94160Y160936D01*
X94433Y161954D01*
Y163007D01*
X94160Y164024D01*
X93634Y164936D01*
X92889Y165681D01*
X91977Y166208D01*
X90960Y166480D01*
D02*
G37*
G36*
X80960D02*
X79906D01*
X78889Y166208D01*
X77977Y165681D01*
X77232Y164936D01*
X76706Y164024D01*
X76433Y163007D01*
Y161954D01*
X76706Y160936D01*
X77232Y160024D01*
X77977Y159280D01*
X78889Y158753D01*
X79906Y158480D01*
X80960D01*
X81977Y158753D01*
X82889Y159280D01*
X83634Y160024D01*
X84161Y160936D01*
X84433Y161954D01*
Y163007D01*
X84161Y164024D01*
X83634Y164936D01*
X82889Y165681D01*
X81977Y166208D01*
X80960Y166480D01*
D02*
G37*
G36*
X90960Y156480D02*
X89907D01*
X88889Y156208D01*
X87977Y155681D01*
X87232Y154936D01*
X86706Y154024D01*
X86433Y153007D01*
Y151954D01*
X86706Y150936D01*
X87232Y150024D01*
X87977Y149279D01*
X88889Y148753D01*
X89907Y148480D01*
X90960D01*
X91977Y148753D01*
X92889Y149279D01*
X93634Y150024D01*
X94160Y150936D01*
X94433Y151954D01*
Y153007D01*
X94160Y154024D01*
X93634Y154936D01*
X92889Y155681D01*
X91977Y156208D01*
X90960Y156480D01*
D02*
G37*
G36*
X80960D02*
X79906D01*
X78889Y156208D01*
X77977Y155681D01*
X77232Y154936D01*
X76706Y154024D01*
X76433Y153007D01*
Y151954D01*
X76706Y150936D01*
X77232Y150024D01*
X77977Y149279D01*
X78889Y148753D01*
X79906Y148480D01*
X80960D01*
X81977Y148753D01*
X82889Y149279D01*
X83634Y150024D01*
X84161Y150936D01*
X84433Y151954D01*
Y153007D01*
X84161Y154024D01*
X83634Y154936D01*
X82889Y155681D01*
X81977Y156208D01*
X80960Y156480D01*
D02*
G37*
G36*
X90960Y146480D02*
X89907D01*
X88889Y146208D01*
X87977Y145681D01*
X87232Y144936D01*
X86706Y144024D01*
X86433Y143007D01*
Y141954D01*
X86706Y140936D01*
X87232Y140024D01*
X87977Y139279D01*
X88889Y138753D01*
X89907Y138480D01*
X90960D01*
X91977Y138753D01*
X92889Y139279D01*
X93634Y140024D01*
X94160Y140936D01*
X94433Y141954D01*
Y143007D01*
X94160Y144024D01*
X93634Y144936D01*
X92889Y145681D01*
X91977Y146208D01*
X90960Y146480D01*
D02*
G37*
G36*
X80960D02*
X79906D01*
X78889Y146208D01*
X77977Y145681D01*
X77232Y144936D01*
X76706Y144024D01*
X76433Y143007D01*
Y141954D01*
X76706Y140936D01*
X77232Y140024D01*
X77977Y139279D01*
X78889Y138753D01*
X79906Y138480D01*
X80960D01*
X81977Y138753D01*
X82889Y139279D01*
X83634Y140024D01*
X84161Y140936D01*
X84433Y141954D01*
Y143007D01*
X84161Y144024D01*
X83634Y144936D01*
X82889Y145681D01*
X81977Y146208D01*
X80960Y146480D01*
D02*
G37*
G36*
X90960Y136480D02*
X89907D01*
X88889Y136208D01*
X87977Y135681D01*
X87232Y134936D01*
X86706Y134024D01*
X86433Y133007D01*
Y131954D01*
X86706Y130936D01*
X87232Y130024D01*
X87977Y129279D01*
X88889Y128753D01*
X89907Y128480D01*
X90960D01*
X91977Y128753D01*
X92889Y129279D01*
X93634Y130024D01*
X94160Y130936D01*
X94433Y131954D01*
Y133007D01*
X94160Y134024D01*
X93634Y134936D01*
X92889Y135681D01*
X91977Y136208D01*
X90960Y136480D01*
D02*
G37*
G36*
X80960D02*
X79906D01*
X78889Y136208D01*
X77977Y135681D01*
X77232Y134936D01*
X76706Y134024D01*
X76433Y133007D01*
Y131954D01*
X76706Y130936D01*
X77232Y130024D01*
X77977Y129279D01*
X78889Y128753D01*
X79906Y128480D01*
X80960D01*
X81977Y128753D01*
X82889Y129279D01*
X83634Y130024D01*
X84161Y130936D01*
X84433Y131954D01*
Y133007D01*
X84161Y134024D01*
X83634Y134936D01*
X82889Y135681D01*
X81977Y136208D01*
X80960Y136480D01*
D02*
G37*
G36*
X90960Y126480D02*
X89907D01*
X88889Y126208D01*
X87977Y125681D01*
X87232Y124936D01*
X86706Y124024D01*
X86433Y123007D01*
Y121954D01*
X86706Y120936D01*
X87232Y120024D01*
X87977Y119280D01*
X88889Y118753D01*
X89907Y118480D01*
X90960D01*
X91977Y118753D01*
X92889Y119280D01*
X93634Y120024D01*
X94160Y120936D01*
X94433Y121954D01*
Y123007D01*
X94160Y124024D01*
X93634Y124936D01*
X92889Y125681D01*
X91977Y126208D01*
X90960Y126480D01*
D02*
G37*
G36*
X80960D02*
X79906D01*
X78889Y126208D01*
X77977Y125681D01*
X77232Y124936D01*
X76706Y124024D01*
X76433Y123007D01*
Y121954D01*
X76706Y120936D01*
X77232Y120024D01*
X77977Y119280D01*
X78889Y118753D01*
X79906Y118480D01*
X80960D01*
X81977Y118753D01*
X82889Y119280D01*
X83634Y120024D01*
X84161Y120936D01*
X84433Y121954D01*
Y123007D01*
X84161Y124024D01*
X83634Y124936D01*
X82889Y125681D01*
X81977Y126208D01*
X80960Y126480D01*
D02*
G37*
G36*
X90960Y116480D02*
X89907D01*
X88889Y116208D01*
X87977Y115681D01*
X87232Y114936D01*
X86706Y114024D01*
X86433Y113007D01*
Y111954D01*
X86706Y110936D01*
X87232Y110024D01*
X87977Y109280D01*
X88889Y108753D01*
X89907Y108480D01*
X90960D01*
X91977Y108753D01*
X92889Y109280D01*
X93634Y110024D01*
X94160Y110936D01*
X94433Y111954D01*
Y113007D01*
X94160Y114024D01*
X93634Y114936D01*
X92889Y115681D01*
X91977Y116208D01*
X90960Y116480D01*
D02*
G37*
G36*
X80960D02*
X79906D01*
X78889Y116208D01*
X77977Y115681D01*
X77232Y114936D01*
X76706Y114024D01*
X76433Y113007D01*
Y111954D01*
X76706Y110936D01*
X77232Y110024D01*
X77977Y109280D01*
X78889Y108753D01*
X79906Y108480D01*
X80960D01*
X81977Y108753D01*
X82889Y109280D01*
X83634Y110024D01*
X84161Y110936D01*
X84433Y111954D01*
Y113007D01*
X84161Y114024D01*
X83634Y114936D01*
X82889Y115681D01*
X81977Y116208D01*
X80960Y116480D01*
D02*
G37*
G36*
X90960Y106480D02*
X89907D01*
X88889Y106208D01*
X87977Y105681D01*
X87232Y104936D01*
X86706Y104024D01*
X86433Y103007D01*
Y101954D01*
X86706Y100936D01*
X87232Y100024D01*
X87977Y99279D01*
X88889Y98753D01*
X89907Y98480D01*
X90960D01*
X91977Y98753D01*
X92889Y99279D01*
X93634Y100024D01*
X94160Y100936D01*
X94433Y101954D01*
Y103007D01*
X94160Y104024D01*
X93634Y104936D01*
X92889Y105681D01*
X91977Y106208D01*
X90960Y106480D01*
D02*
G37*
G36*
X80960D02*
X79906D01*
X78889Y106208D01*
X77977Y105681D01*
X77232Y104936D01*
X76706Y104024D01*
X76433Y103007D01*
Y101954D01*
X76706Y100936D01*
X77232Y100024D01*
X77977Y99279D01*
X78889Y98753D01*
X79906Y98480D01*
X80960D01*
X81977Y98753D01*
X82889Y99279D01*
X83634Y100024D01*
X84161Y100936D01*
X84433Y101954D01*
Y103007D01*
X84161Y104024D01*
X83634Y104936D01*
X82889Y105681D01*
X81977Y106208D01*
X80960Y106480D01*
D02*
G37*
G36*
X90960Y96480D02*
X89907D01*
X88889Y96208D01*
X87977Y95681D01*
X87232Y94936D01*
X86706Y94024D01*
X86433Y93007D01*
Y91954D01*
X86706Y90936D01*
X87232Y90024D01*
X87977Y89280D01*
X88889Y88753D01*
X89907Y88480D01*
X90960D01*
X91977Y88753D01*
X92889Y89280D01*
X93634Y90024D01*
X94160Y90936D01*
X94433Y91954D01*
Y93007D01*
X94160Y94024D01*
X93634Y94936D01*
X92889Y95681D01*
X91977Y96208D01*
X90960Y96480D01*
D02*
G37*
G36*
X80960D02*
X79906D01*
X78889Y96208D01*
X77977Y95681D01*
X77232Y94936D01*
X76706Y94024D01*
X76433Y93007D01*
Y91954D01*
X76706Y90936D01*
X77232Y90024D01*
X77977Y89280D01*
X78889Y88753D01*
X79906Y88480D01*
X80960D01*
X81977Y88753D01*
X82889Y89280D01*
X83634Y90024D01*
X84161Y90936D01*
X84433Y91954D01*
Y93007D01*
X84161Y94024D01*
X83634Y94936D01*
X82889Y95681D01*
X81977Y96208D01*
X80960Y96480D01*
D02*
G37*
G36*
X90960Y86480D02*
X89907D01*
X88889Y86208D01*
X87977Y85681D01*
X87232Y84936D01*
X86706Y84024D01*
X86433Y83007D01*
Y81954D01*
X86706Y80936D01*
X87232Y80024D01*
X87977Y79280D01*
X88889Y78753D01*
X89907Y78480D01*
X90960D01*
X91977Y78753D01*
X92889Y79280D01*
X93634Y80024D01*
X94160Y80936D01*
X94433Y81954D01*
Y83007D01*
X94160Y84024D01*
X93634Y84936D01*
X92889Y85681D01*
X91977Y86208D01*
X90960Y86480D01*
D02*
G37*
G36*
X80960D02*
X79906D01*
X78889Y86208D01*
X77977Y85681D01*
X77232Y84936D01*
X76706Y84024D01*
X76433Y83007D01*
Y81954D01*
X76706Y80936D01*
X77232Y80024D01*
X77977Y79280D01*
X78889Y78753D01*
X79906Y78480D01*
X80960D01*
X81977Y78753D01*
X82889Y79280D01*
X83634Y80024D01*
X84161Y80936D01*
X84433Y81954D01*
Y83007D01*
X84161Y84024D01*
X83634Y84936D01*
X82889Y85681D01*
X81977Y86208D01*
X80960Y86480D01*
D02*
G37*
G36*
X90960Y76480D02*
X89907D01*
X88889Y76208D01*
X87977Y75681D01*
X87232Y74936D01*
X86706Y74024D01*
X86433Y73007D01*
Y71954D01*
X86706Y70936D01*
X87232Y70024D01*
X87977Y69279D01*
X88889Y68753D01*
X89907Y68480D01*
X90960D01*
X91977Y68753D01*
X92889Y69279D01*
X93634Y70024D01*
X94160Y70936D01*
X94433Y71954D01*
Y73007D01*
X94160Y74024D01*
X93634Y74936D01*
X92889Y75681D01*
X91977Y76208D01*
X90960Y76480D01*
D02*
G37*
G36*
X80960D02*
X79906D01*
X78889Y76208D01*
X77977Y75681D01*
X77232Y74936D01*
X76706Y74024D01*
X76433Y73007D01*
Y71954D01*
X76706Y70936D01*
X77232Y70024D01*
X77977Y69279D01*
X78889Y68753D01*
X79906Y68480D01*
X80960D01*
X81977Y68753D01*
X82889Y69279D01*
X83634Y70024D01*
X84161Y70936D01*
X84433Y71954D01*
Y73007D01*
X84161Y74024D01*
X83634Y74936D01*
X82889Y75681D01*
X81977Y76208D01*
X80960Y76480D01*
D02*
G37*
G36*
X94433Y66480D02*
X86433D01*
Y58480D01*
X94433D01*
Y66480D01*
D02*
G37*
G36*
X80960D02*
X79906D01*
X78889Y66208D01*
X77977Y65681D01*
X77232Y64936D01*
X76706Y64024D01*
X76433Y63007D01*
Y61954D01*
X76706Y60936D01*
X77232Y60024D01*
X77977Y59280D01*
X78889Y58753D01*
X79906Y58480D01*
X80960D01*
X81977Y58753D01*
X82889Y59280D01*
X83634Y60024D01*
X84161Y60936D01*
X84433Y61954D01*
Y63007D01*
X84161Y64024D01*
X83634Y64936D01*
X82889Y65681D01*
X81977Y66208D01*
X80960Y66480D01*
D02*
G37*
G36*
X279386Y56512D02*
X277307D01*
X275254Y56187D01*
X273278Y55544D01*
X271426Y54601D01*
X269744Y53379D01*
X268274Y51909D01*
X267053Y50228D01*
X266109Y48376D01*
X265467Y46399D01*
X265142Y44346D01*
Y42268D01*
X265467Y40215D01*
X266109Y38238D01*
X267053Y36386D01*
X268274Y34705D01*
X269744Y33235D01*
X271426Y32013D01*
X273278Y31070D01*
X275254Y30428D01*
X277307Y30102D01*
X279386D01*
X281439Y30428D01*
X283415Y31070D01*
X285267Y32013D01*
X286949Y33235D01*
X288418Y34705D01*
X289640Y36386D01*
X290584Y38238D01*
X291226Y40215D01*
X291551Y42268D01*
Y44346D01*
X291226Y46399D01*
X290584Y48376D01*
X289640Y50228D01*
X288418Y51909D01*
X286949Y53379D01*
X285267Y54601D01*
X283415Y55544D01*
X281439Y56187D01*
X279386Y56512D01*
D02*
G37*
G36*
X86472D02*
X84394D01*
X82341Y56187D01*
X80364Y55544D01*
X78512Y54601D01*
X76831Y53379D01*
X75361Y51909D01*
X74139Y50228D01*
X73196Y48376D01*
X72553Y46399D01*
X72228Y44346D01*
Y42268D01*
X72553Y40215D01*
X73196Y38238D01*
X74139Y36386D01*
X75361Y34705D01*
X76831Y33235D01*
X78512Y32013D01*
X80364Y31070D01*
X82341Y30428D01*
X84394Y30102D01*
X86472D01*
X88525Y30428D01*
X90502Y31070D01*
X92354Y32013D01*
X94035Y33235D01*
X95505Y34705D01*
X96727Y36386D01*
X97670Y38238D01*
X98313Y40215D01*
X98638Y42268D01*
Y44346D01*
X98313Y46399D01*
X97670Y48376D01*
X96727Y50228D01*
X95505Y51909D01*
X94035Y53379D01*
X92354Y54601D01*
X90502Y55544D01*
X88525Y56187D01*
X86472Y56512D01*
D02*
G37*
%LPD*%
D16*
X278346Y43307D02*
D03*
Y271654D02*
D03*
X85433D02*
D03*
Y43307D02*
D03*
D17*
X90433Y62480D02*
D03*
D18*
Y72480D02*
D03*
Y82480D02*
D03*
Y92480D02*
D03*
Y102480D02*
D03*
Y112480D02*
D03*
X80433Y62480D02*
D03*
Y72480D02*
D03*
Y82480D02*
D03*
Y92480D02*
D03*
Y102480D02*
D03*
Y112480D02*
D03*
X90433Y122480D02*
D03*
X80433D02*
D03*
X90433Y132480D02*
D03*
Y142480D02*
D03*
Y152480D02*
D03*
Y162480D02*
D03*
Y172480D02*
D03*
Y182480D02*
D03*
X80433Y132480D02*
D03*
Y142480D02*
D03*
Y152480D02*
D03*
Y162480D02*
D03*
Y172480D02*
D03*
Y182480D02*
D03*
X90433Y192480D02*
D03*
X80433D02*
D03*
X90433Y202480D02*
D03*
Y212480D02*
D03*
Y222480D02*
D03*
Y232480D02*
D03*
Y242480D02*
D03*
Y252480D02*
D03*
X80433Y202480D02*
D03*
Y212480D02*
D03*
Y222480D02*
D03*
Y232480D02*
D03*
Y242480D02*
D03*
Y252480D02*
D03*
M02*
