M48
;Layer_Color=9474304
;FILE_FORMAT=2:5
INCH,TZ
;TYPE=PLATED
T1F00S00C0.04000
T2F00S00C0.10827
%
T01
X80433Y62480
X90433
Y72480
Y82480
Y92480
Y102480
Y112480
X80433
Y102480
Y92480
Y82480
Y72480
Y122480
X90433
Y132480
Y142480
Y152480
X80433
Y142480
Y132480
Y162480
X90433
Y172480
Y182480
X80433
Y172480
Y192480
X90433
Y202480
Y212480
Y222480
Y232480
Y242480
Y252480
X80433
Y242480
Y232480
Y222480
Y212480
Y202480
T02
X85433Y43307
X278346
Y271654
X85433
M30
