M48
;Layer_Color=9474304
;FILE_FORMAT=2:5
INCH,TZ
;TYPE=PLATED
T1F00S00C0.01500
T2F00S00C0.03543
T3F00S00C0.04000
T4F00S00C0.04016
T5F00S00C0.05118
T6F00S00C0.10827
;TYPE=NON_PLATED
T7F00S00C0.04331
T8F00S00C0.04921
%
T01
X160015Y211015
X159000Y218000
X161000Y266000
X165000Y274000
X180000
X185000Y285000
X175000Y295000
X170000Y292000
X165000Y295000
X190000Y307000
X265000
X272000Y295000
X275000Y289000
X280000Y274000
X265000
Y178000
X262000Y181000
X259000Y184000
X258000Y171000
X255000Y174000
X252000Y177000
X235000Y180000
X230000Y169000
X215000
Y190000
X225000
X185000
X151485Y202485
X145691Y204955
X141000Y208000
X139485Y214485
X148015Y223015
X155000Y222000
X190000Y314000
T02
X170158Y137933
X180000
X189842
T03
X109000Y133173
X119000
Y143173
Y153173
X109000
Y143173
Y163173
X119000
Y173173
Y183173
X109000
Y173173
Y193173
X119000
Y203173
Y213173
Y223173
Y233173
Y243173
Y253173
X109000
Y243173
Y233173
Y223173
Y213173
Y203173
Y263173
X119000
Y273173
Y283173
Y293173
Y303173
X109000
Y293173
Y283173
Y273173
Y313173
X119000
Y323173
X109000
T04
X215000Y141496
X225000
X235000
X245000
X265000
X275000
X285000
X295000
Y246496
X285000
X275000
X265000
X245000
X235000
X225000
X215000
X195000
X185000
X175000
X165000
T05
X280000Y185000
Y205000
T06
X114000Y114000
X306913
X114000Y342347
X306913
T07
X196142Y145807
T08
X235000Y150000
X285000
Y255000
X235000
X185000
M30
